<svg width="42" height="38" viewBox="0 0 42 38" fill="none" xmlns="http://www.w3.org/2000/svg">
<g clip-path="url(#clip0_441_189)">
<path d="M42 19C42 19.3111 41.9917 19.6219 41.9746 19.9322C41.958 20.2429 41.9326 20.5529 41.8989 20.8624C41.8653 21.1719 41.8233 21.4803 41.7725 21.7879C41.7222 22.0954 41.6636 22.4018 41.5966 22.7066C41.5293 23.0118 41.454 23.315 41.3704 23.6166C41.2873 23.9182 41.1954 24.2179 41.0957 24.5155C40.9959 24.8128 40.8883 25.1081 40.7724 25.401C40.6564 25.6935 40.5331 25.9837 40.4014 26.2711C40.2701 26.5584 40.1306 26.8423 39.9836 27.1237C39.837 27.4047 39.6821 27.6822 39.5203 27.9565C39.3584 28.2308 39.1891 28.5012 39.0123 28.768C38.8356 29.0348 38.6518 29.2972 38.4611 29.5557C38.2699 29.8146 38.0721 30.0687 37.8674 30.3185C37.6626 30.5682 37.4513 30.8133 37.233 31.0535C37.0151 31.2938 36.7907 31.5293 36.5601 31.7597C36.3291 31.9901 36.0924 32.2153 35.8492 32.435C35.6064 32.6551 35.3574 32.8692 35.1028 33.0782C34.8482 33.2868 34.5879 33.4899 34.3223 33.687C34.0568 33.8845 33.7859 34.0757 33.5099 34.261C33.2338 34.4462 32.9529 34.6251 32.6668 34.7981C32.3811 34.9707 32.0911 35.1369 31.7962 35.2969C31.5013 35.4568 31.2025 35.61 30.8993 35.7564C30.5961 35.9033 30.2894 36.043 29.9788 36.1756C29.6678 36.3086 29.3541 36.4349 29.0364 36.5536C28.7188 36.6728 28.3981 36.7844 28.0748 36.8893C27.7511 36.9942 27.4247 37.0916 27.0961 37.1818C26.7671 37.2721 26.4359 37.3552 26.1026 37.4304C25.7692 37.506 25.4341 37.5741 25.0968 37.635C24.7599 37.6956 24.4213 37.7486 24.0813 37.7942C23.7414 37.8401 23.4006 37.8781 23.0584 37.9086C22.7163 37.939 22.3738 37.962 22.0303 37.977C21.6873 37.9925 21.3439 38 21 38C20.6561 38 20.3127 37.9925 19.9697 37.977C19.6263 37.962 19.2837 37.939 18.9416 37.9086C18.5994 37.8781 18.2586 37.8401 17.9187 37.7942C17.5788 37.7486 17.2401 37.6956 16.9033 37.635C16.5659 37.5741 16.2308 37.506 15.8974 37.4304C15.5641 37.3552 15.2329 37.2721 14.9039 37.1818C14.5753 37.0916 14.2489 36.9942 13.9252 36.8893C13.6019 36.7844 13.2812 36.6728 12.9636 36.5536C12.6459 36.4349 12.3318 36.3086 12.0212 36.1756C11.7106 36.043 11.4039 35.9033 11.1007 35.7564C10.7975 35.61 10.4987 35.4568 10.2038 35.2969C9.90894 35.1369 9.61888 34.9707 9.33319 34.7981C9.04706 34.6251 8.76619 34.4462 8.49013 34.261C8.21406 34.0757 7.94325 33.8845 7.67769 33.687C7.41213 33.4899 7.15181 33.2868 6.89719 33.0782C6.64256 32.8692 6.39363 32.6551 6.15081 32.435C5.90756 32.2153 5.67088 31.9901 5.43988 31.7597C5.20931 31.5293 4.98488 31.2938 4.76656 31.0535C4.54869 30.8133 4.33738 30.5682 4.13263 30.3185C3.92788 30.0687 3.73013 29.8146 3.53894 29.5557C3.34819 29.2972 3.16444 29.0348 2.98769 28.768C2.81094 28.5012 2.64163 28.2308 2.47975 27.9565C2.31744 27.6822 2.163 27.4047 2.01644 27.1237C1.86944 26.8423 1.72988 26.5584 1.59863 26.2711C1.46694 25.9837 1.34356 25.6935 1.22763 25.401C1.11169 25.1081 1.00406 24.8128 0.904313 24.5155C0.804563 24.2179 0.712687 23.9182 0.629125 23.6166C0.546 23.315 0.47075 23.0118 0.403375 22.7066C0.336437 22.4018 0.277813 22.0954 0.2275 21.7879C0.17675 21.4803 0.13475 21.1719 0.101063 20.8624C0.0673749 20.5529 0.042 20.2429 0.0253749 19.9322C0.00831251 19.6219 0 19.3111 0 19C0 18.6889 0.00831251 18.3781 0.0253749 18.0678C0.042 17.7571 0.0673749 17.4471 0.101063 17.1376C0.13475 16.8281 0.17675 16.5197 0.2275 16.2121C0.277813 15.9046 0.336437 15.5982 0.403375 15.2934C0.47075 14.9882 0.546 14.685 0.629125 14.3834C0.712687 14.0818 0.804563 13.7821 0.904313 13.4845C1.00406 13.1872 1.11169 12.8919 1.22763 12.599C1.34356 12.3065 1.46694 12.0163 1.59863 11.7289C1.72988 11.4416 1.86944 11.1574 2.01644 10.8763C2.163 10.5953 2.31744 10.3178 2.47975 10.0435C2.64163 9.76917 2.81094 9.49881 2.98769 9.23202C3.16444 8.96523 3.34819 8.70279 3.53894 8.44431C3.73013 8.18544 3.92788 7.93131 4.13263 7.68154C4.33738 7.43177 4.54869 7.18675 4.76656 6.94648C4.98488 6.70621 5.20931 6.47069 5.43988 6.24031C5.67088 6.00994 5.90756 5.78471 6.15081 5.56502C6.39363 5.34494 6.64256 5.13079 6.89719 4.92179C7.15181 4.71319 7.41213 4.51013 7.67769 4.3126C7.94325 4.11548 8.21406 3.92429 8.49013 3.73904C8.76619 3.55379 9.04706 3.37488 9.33319 3.2019C9.61888 3.02931 9.90894 2.86306 10.2038 2.70315C10.4987 2.54323 10.7975 2.39004 11.1007 2.24358C11.4039 2.09673 11.7106 1.957 12.0212 1.8244C12.3318 1.6914 12.6459 1.56513 12.9636 1.44638C13.2812 1.32723 13.6019 1.2156 13.9252 1.11071C14.2489 1.00581 14.5753 0.908438 14.9039 0.818188C15.2329 0.727938 15.5641 0.644812 15.8974 0.569208C16.2308 0.494 16.5659 0.425917 16.9033 0.364958C17.2401 0.304396 17.5788 0.251354 17.9187 0.205833C18.2586 0.159917 18.5994 0.121917 18.9416 0.0914375C19.2837 0.0609583 19.6263 0.038 19.9697 0.0229583C20.3127 0.00752084 20.6561 0 21 0C21.3439 0 21.6873 0.00752084 22.0303 0.0229583C22.3738 0.038 22.7163 0.0609583 23.0584 0.0914375C23.4006 0.121917 23.7414 0.159917 24.0813 0.205833C24.4213 0.251354 24.7599 0.304396 25.0968 0.364958C25.4341 0.425917 25.7692 0.494 26.1026 0.569208C26.4359 0.644812 26.7671 0.727938 27.0961 0.818188C27.4247 0.908438 27.7511 1.00581 28.0748 1.11071C28.3981 1.2156 28.7188 1.32723 29.0364 1.44638C29.3541 1.56513 29.6678 1.6914 29.9788 1.8244C30.2894 1.957 30.5961 2.09673 30.8993 2.24358C31.2025 2.39004 31.5013 2.54323 31.7962 2.70315C32.0911 2.86306 32.3811 3.02931 32.6668 3.2019C32.9529 3.37488 33.2338 3.55379 33.5099 3.73904C33.7859 3.92429 34.0568 4.11548 34.3223 4.3126C34.5879 4.51013 34.8482 4.71319 35.1028 4.92179C35.3574 5.13079 35.6064 5.34494 35.8492 5.56502C36.0924 5.78471 36.3291 6.00994 36.5601 6.24031C36.7907 6.47069 37.0151 6.70621 37.233 6.94648C37.4513 7.18675 37.6626 7.43177 37.8674 7.68154C38.0721 7.93131 38.2699 8.18544 38.4611 8.44431C38.6518 8.70279 38.8356 8.96523 39.0123 9.23202C39.1891 9.49881 39.3584 9.76917 39.5203 10.0435C39.6821 10.3178 39.837 10.5953 39.9836 10.8763C40.1306 11.1574 40.2701 11.4416 40.4014 11.7289C40.5331 12.0163 40.6564 12.3065 40.7724 12.599C40.8883 12.8919 40.9959 13.1872 41.0957 13.4845C41.1954 13.7821 41.2873 14.0818 41.3704 14.3834C41.454 14.685 41.5293 14.9882 41.5966 15.2934C41.6636 15.5982 41.7222 15.9046 41.7725 16.2121C41.8233 16.5197 41.8653 16.8281 41.8989 17.1376C41.9326 17.4471 41.958 17.7571 41.9746 18.0678C41.9917 18.3781 42 18.6889 42 19Z" fill="#FFEFB7"/>
<mask id="mask0_441_189" style="mask-type:luminance" maskUnits="userSpaceOnUse" x="13" y="2" width="15" height="34">
<path d="M13.776 2.85992H27.888V35.0614H13.776V2.85992Z" fill="white"/>
</mask>
<g mask="url(#mask0_441_189)">
<path d="M20.8333 2.85992C16.9837 2.85992 13.8569 10.0681 13.8569 18.9224C13.8569 27.7768 16.9837 34.9854 20.8333 34.9854C24.6829 34.9854 27.818 27.7768 27.818 18.9224C27.818 10.0681 24.6829 2.85992 20.8333 2.85992Z" fill="#F6D55C"/>
</g>
<path d="M21.7026 4.256C21.7188 4.3514 21.7429 4.45431 21.7595 4.54971C21.9625 4.54971 22.1655 4.54971 22.3685 4.54971C22.1979 4.21167 21.9949 3.88115 21.7512 3.58744C21.6619 3.48452 21.5565 3.38161 21.4506 3.29333C21.5644 3.60208 21.6374 3.92509 21.7026 4.256Z" fill="#F6D55C"/>
<path d="M21.8405 5.02747C21.8811 5.27724 21.9135 5.51988 21.9463 5.76965C21.9949 6.13699 22.0356 6.4972 22.0763 6.86453C22.4661 6.86453 22.8476 6.86453 23.2374 6.86453C23.0589 6.2399 22.8476 5.6228 22.5877 5.02747C22.344 5.02747 22.0925 5.02747 21.8405 5.02747Z" fill="#F6D55C"/>
<path d="M22.1331 7.34192C22.1979 7.96654 22.2464 8.59869 22.2954 9.22331C22.799 9.22331 23.3026 9.22331 23.8061 9.22331C23.6841 8.61334 23.5541 8.01088 23.3918 7.40842C23.3835 7.38625 23.3835 7.36409 23.3756 7.34192C22.9613 7.34192 22.547 7.34192 22.1331 7.34192Z" fill="#F6D55C"/>
<path d="M22.3278 9.70068C22.3361 9.78895 22.3361 9.8697 22.344 9.95798C22.3847 10.6119 22.4254 11.2587 22.4578 11.9126C23.0506 11.9126 23.6434 11.9126 24.2283 11.9126C24.1876 11.567 24.1391 11.2219 24.0901 10.8763C24.0901 10.8985 24.0984 10.9278 24.0984 10.9499C24.0332 10.5311 23.9684 10.1124 23.8954 9.70068C23.3673 9.70068 22.8476 9.70068 22.3278 9.70068Z" fill="#F6D55C"/>
<path d="M22.4739 12.3904C22.5063 13.1397 22.5391 13.889 22.5553 14.6458C23.1967 14.6458 23.8464 14.6458 24.4882 14.6458C24.4313 13.8965 24.3661 13.1397 24.2769 12.3904C23.6841 12.3904 23.0829 12.3904 22.4739 12.3904Z" fill="#F6D55C"/>
<path d="M22.9368 15.1236C22.8152 15.1236 22.6931 15.1236 22.5715 15.1236C22.5715 15.234 22.5794 15.3366 22.5794 15.447C22.596 16.1302 22.6122 16.8138 22.6201 17.497C23.0427 17.497 23.4728 17.497 23.8954 17.497C24.1391 17.497 24.3906 17.497 24.6343 17.497C24.626 17.159 24.6098 16.8209 24.6019 16.4829C24.5858 16.0273 24.5613 15.5792 24.5289 15.1236C24.0008 15.1236 23.4649 15.1236 22.9368 15.1236Z" fill="#F6D55C"/>
<path d="M22.6284 17.9748C22.6363 18.7534 22.6363 19.5324 22.6363 20.3114C22.7828 20.3114 22.9206 20.3114 23.0668 20.3114C23.5948 20.3114 24.1229 20.3114 24.6505 20.3114C24.6667 19.5324 24.6667 18.7534 24.6505 17.9748C23.9763 17.9748 23.3026 17.9748 22.6284 17.9748Z" fill="#F6D55C"/>
<path d="M22.6363 20.7888C22.6363 21.0753 22.6284 21.3619 22.6284 21.656C22.6201 22.1484 22.6122 22.6405 22.6039 23.1258C23.0261 23.1258 23.4566 23.1258 23.8792 23.1258C24.0984 23.1258 24.3176 23.1258 24.5451 23.1258C24.5529 22.9492 24.5696 22.7802 24.5774 22.604C24.6098 22.0012 24.6343 21.3987 24.6505 20.7888C23.9684 20.7888 23.3026 20.7888 22.6363 20.7888Z" fill="#F6D55C"/>
<path d="M22.596 23.6031C22.5794 24.3014 22.5632 24.9921 22.5308 25.69C23.1236 25.69 23.7248 25.69 24.3176 25.69C24.3989 24.9921 24.4558 24.3014 24.5127 23.6031C23.8709 23.6031 23.2295 23.6031 22.596 23.6031Z" fill="#F6D55C"/>
<path d="M22.9613 26.1677C22.8069 26.1677 22.6607 26.1677 22.5063 26.1677C22.4901 26.5351 22.4739 26.9024 22.4577 27.2626C22.4332 27.7036 22.4092 28.1441 22.3847 28.5851C22.8882 28.5851 23.3835 28.5851 23.887 28.5851C23.9684 28.137 24.0494 27.6814 24.1145 27.2258C24.1145 27.248 24.1062 27.2772 24.1062 27.2994C24.1631 26.9246 24.2121 26.5426 24.2607 26.1677C23.8302 26.1677 23.3997 26.1677 22.9613 26.1677Z" fill="#F6D55C"/>
<path d="M22.3602 29.0629C22.3116 29.7168 22.2631 30.3707 22.1979 31.0246C22.5794 31.0246 22.953 31.0246 23.3349 31.0246C23.3756 30.8778 23.4163 30.7234 23.4566 30.569C23.5865 30.0695 23.7003 29.5624 23.8061 29.0554C23.3188 29.0629 22.8397 29.0629 22.3602 29.0629Z" fill="#F6D55C"/>
<path d="M22.141 31.5024C22.1331 31.5463 22.1331 31.5907 22.1248 31.6346C22.0679 32.1048 22.0111 32.5826 21.938 33.0529C22.1572 33.0529 22.3764 33.0529 22.6039 33.0529C22.8397 32.5458 23.0261 32.0312 23.1888 31.5024C22.8397 31.5024 22.4901 31.5024 22.141 31.5024Z" fill="#F6D55C"/>
<path d="M21.8566 33.5303C21.8081 33.8097 21.7429 34.0963 21.6619 34.3683C21.6457 34.4122 21.6374 34.4561 21.6212 34.4929C21.7188 34.4122 21.8081 34.3168 21.8894 34.2285C22.0679 34.008 22.2224 33.7729 22.3602 33.5303C22.1896 33.5303 22.0194 33.5303 21.8566 33.5303Z" fill="#F6D55C"/>
<path d="M20.5979 4.01336C20.5573 4.1899 20.5166 4.37357 20.4842 4.54971C20.7034 4.54971 20.923 4.54971 21.1501 4.54971C21.1177 4.39573 21.0853 4.24848 21.0529 4.09411C20.9878 3.82969 20.923 3.55775 20.8093 3.30798C20.7117 3.53598 20.6465 3.77111 20.5979 4.01336Z" fill="#F6D55C"/>
<path d="M20.4033 5.02747C20.3949 5.07892 20.3866 5.12286 20.3788 5.17432C20.3788 5.15255 20.3866 5.12286 20.3866 5.10109C20.2974 5.6889 20.2326 6.27672 20.1758 6.86453C20.3464 6.86453 20.5166 6.86453 20.6955 6.86453C20.9554 6.86453 21.2153 6.86453 21.4751 6.86453C21.4183 6.37211 21.3614 5.88722 21.2883 5.40232C21.2883 5.3948 21.2883 5.38015 21.28 5.37263C21.2638 5.26259 21.2476 5.14503 21.2231 5.03499C20.9554 5.02747 20.6793 5.02747 20.4033 5.02747Z" fill="#F6D55C"/>
<path d="M20.1351 7.34192C20.1189 7.54063 20.1027 7.73894 20.0865 7.93725C20.0537 8.36356 20.0213 8.797 19.9968 9.22331C20.5573 9.22331 21.126 9.22331 21.6865 9.22331C21.6375 8.59869 21.5889 7.96654 21.5237 7.34192C21.0608 7.34192 20.598 7.34192 20.1351 7.34192Z" fill="#F6D55C"/>
<path d="M19.9644 9.70068C19.9238 10.4357 19.8831 11.1779 19.859 11.9126C20.5249 11.9126 21.1829 11.9126 21.8488 11.9126C21.8164 11.1779 21.7674 10.4357 21.7188 9.70068C21.1339 9.70068 20.5494 9.70068 19.9644 9.70068Z" fill="#F6D55C"/>
<path d="M19.8428 12.3904C19.8345 12.5665 19.8345 12.7355 19.8266 12.9121C19.81 13.4924 19.7938 14.0655 19.7776 14.6458C20.4842 14.6458 21.1907 14.6458 21.8894 14.6458C21.9056 14.6458 21.9297 14.6458 21.9542 14.6458C21.9297 13.8965 21.9056 13.1472 21.8728 12.3904C21.1907 12.3904 20.5166 12.3904 19.8428 12.3904Z" fill="#F6D55C"/>
<path d="M19.7697 15.1236C19.7531 15.9172 19.7452 16.7109 19.7452 17.5045C20.5004 17.5045 21.2559 17.5045 22.0111 17.5045C22.0027 16.7109 21.9866 15.9172 21.9625 15.1236C21.2314 15.1236 20.5004 15.1236 19.7697 15.1236Z" fill="#F6D55C"/>
<path d="M19.7452 17.9748C19.7452 18.2907 19.7452 18.6065 19.7452 18.9224C19.7452 19.3855 19.7531 19.8483 19.7531 20.3114C20.5087 20.3114 21.2638 20.3114 22.0194 20.3114C22.0194 19.5324 22.0194 18.7534 22.0111 17.9748C21.2638 17.9748 20.5004 17.9748 19.7452 17.9748Z" fill="#F6D55C"/>
<path d="M19.7614 20.7888C19.7698 21.5678 19.7938 22.3468 19.81 23.1258C20.5332 23.1258 21.2638 23.1258 21.9866 23.1258C22.0028 22.3689 22.0111 21.6121 22.0194 20.8553C22.0194 20.8331 22.0194 20.8109 22.0194 20.7888C21.2721 20.7888 20.5166 20.7888 19.7614 20.7888Z" fill="#F6D55C"/>
<path d="M19.8266 23.6031C19.8507 24.3014 19.8752 24.9921 19.9076 25.69C20.5734 25.69 21.2476 25.69 21.9135 25.69C21.938 24.9921 21.9625 24.3014 21.9787 23.6031C21.2638 23.6031 20.5494 23.6031 19.8266 23.6031Z" fill="#F6D55C"/>
<path d="M19.9321 26.1677C19.9728 26.9467 20.0213 27.7253 20.0782 28.5043C20.0782 28.5336 20.0865 28.5633 20.0865 28.5926C20.6548 28.5926 21.2153 28.5926 21.7757 28.5926C21.8164 27.9312 21.8566 27.2626 21.8811 26.6012C21.8894 26.4614 21.8973 26.3146 21.8973 26.1748C21.2476 26.1677 20.5896 26.1677 19.9321 26.1677Z" fill="#F6D55C"/>
<path d="M20.9961 29.0629C20.7034 29.0629 20.4111 29.0629 20.1189 29.0629C20.1674 29.7168 20.2243 30.3707 20.2974 31.0246C20.7279 31.0246 21.1501 31.0246 21.5806 31.0246C21.6129 30.7012 21.6374 30.3854 21.6698 30.062C21.6943 29.7243 21.7267 29.3934 21.7429 29.0554C21.4996 29.0629 21.2476 29.0629 20.9961 29.0629Z" fill="#F6D55C"/>
<path d="M20.3542 31.5024C20.3949 31.8329 20.4356 32.1638 20.4842 32.4868C20.4842 32.465 20.4763 32.4354 20.4763 32.4136C20.5087 32.6265 20.5411 32.8395 20.5817 33.0529C20.8333 33.0529 21.077 33.0529 21.329 33.0529C21.3531 32.9207 21.3697 32.7956 21.3937 32.6634C21.4506 32.2739 21.4996 31.8919 21.5399 31.5024C21.1422 31.5024 20.7524 31.5024 20.3542 31.5024Z" fill="#F6D55C"/>
<path d="M20.671 33.5303C20.6872 33.5964 20.7034 33.67 20.7196 33.7361C20.7847 34.0005 20.8495 34.2725 20.9632 34.5222C21.0608 34.2946 21.126 34.052 21.1746 33.8169C21.1991 33.7215 21.2152 33.6261 21.2397 33.5303C21.0529 33.5303 20.8578 33.5303 20.671 33.5303Z" fill="#F6D55C"/>
<path d="M19.9482 3.5724C19.6962 3.87402 19.5016 4.20454 19.3309 4.54971C19.5099 4.54971 19.6884 4.54971 19.8752 4.54971C19.9321 4.21919 19.9968 3.88867 20.0865 3.56527C20.1027 3.49917 20.1267 3.43306 20.1429 3.37408C20.0699 3.43306 20.013 3.50629 19.9482 3.5724Z" fill="#F6D55C"/>
<path d="M19.1117 5.02747C18.8597 5.6228 18.6567 6.24742 18.4782 6.86453C18.8436 6.86453 19.2093 6.86453 19.5663 6.86453C19.6232 6.24742 19.6962 5.63744 19.7938 5.02747C19.5663 5.02747 19.3392 5.02747 19.1117 5.02747Z" fill="#F6D55C"/>
<path d="M18.3483 7.34192C18.186 7.96654 18.0561 8.59117 17.934 9.22331C18.4131 9.22331 18.9004 9.22331 19.3799 9.22331C19.3961 8.97354 19.4123 8.71625 19.4285 8.46648C19.453 8.09163 19.4854 7.71677 19.5177 7.34192C19.1362 7.34192 18.7464 7.34192 18.3483 7.34192Z" fill="#F6D55C"/>
<path d="M17.8531 9.70068C17.8041 9.99479 17.7555 10.2814 17.7148 10.5751V10.568C17.6501 11.016 17.5932 11.4645 17.5363 11.9126C18.1046 11.9126 18.6734 11.9126 19.25 11.9126C19.2824 11.1779 19.3148 10.4357 19.3554 9.70068C18.8519 9.70068 18.3566 9.70068 17.8531 9.70068Z" fill="#F6D55C"/>
<path d="M17.4873 12.3904C17.4064 13.1397 17.3412 13.889 17.2926 14.6458C17.9178 14.6458 18.543 14.6458 19.1686 14.6458C19.1765 14.2932 19.1848 13.9405 19.1931 13.5878C19.201 13.1912 19.2172 12.787 19.2334 12.3904C18.6489 12.3904 18.0639 12.3904 17.4873 12.3904Z" fill="#F6D55C"/>
<path d="M17.2598 15.1236C17.2196 15.9172 17.1867 16.7109 17.1789 17.5045C17.8286 17.5045 18.4866 17.5045 19.1362 17.5045C19.1362 16.7109 19.1441 15.9172 19.1603 15.1236C18.5268 15.1236 17.8933 15.1236 17.2598 15.1236Z" fill="#F6D55C"/>
<path d="M17.1706 17.9748C17.1706 18.2907 17.1706 18.5994 17.1706 18.9153C17.1706 19.378 17.1789 19.8411 17.1951 20.3114C17.8448 20.3114 18.5028 20.3114 19.1524 20.3114C19.1441 19.8483 19.1441 19.3855 19.1363 18.9224C19.1363 18.6065 19.1363 18.2907 19.1363 17.9748C18.4783 17.9748 17.8286 17.9748 17.1706 17.9748Z" fill="#F6D55C"/>
<path d="M17.2034 20.7888C17.2274 21.5678 17.2681 22.3468 17.325 23.1258C17.9502 23.1258 18.5758 23.1258 19.201 23.1258C19.1765 22.3468 19.1603 21.5678 19.1524 20.7888C18.5027 20.7888 17.8531 20.7888 17.2034 20.7888Z" fill="#F6D55C"/>
<path d="M17.3657 23.6031C17.4226 24.3014 17.4956 24.9993 17.5766 25.69C18.1532 25.69 18.7298 25.69 19.3064 25.69C19.2986 25.4402 19.2824 25.1829 19.2741 24.9331C19.2579 24.4922 19.2417 24.0441 19.2255 23.6031C18.5999 23.6031 17.983 23.6031 17.3657 23.6031Z" fill="#F6D55C"/>
<path d="M17.6334 26.1677C17.6662 26.3953 17.6986 26.6305 17.731 26.8585C17.8202 27.4387 17.9178 28.0119 18.0232 28.5851C18.5027 28.5851 18.9897 28.5851 19.4692 28.5851C19.4123 27.7768 19.3633 26.976 19.323 26.1677C18.7626 26.1677 18.2022 26.1677 17.6334 26.1677Z" fill="#F6D55C"/>
<path d="M18.1208 29.0629C18.2184 29.5109 18.3159 29.9519 18.4376 30.3929C18.4944 30.6058 18.5513 30.8117 18.6165 31.0246C18.9735 31.0246 19.3393 31.0246 19.6963 31.0246C19.656 30.6502 19.6153 30.2753 19.5829 29.9004C19.5584 29.6214 19.5339 29.3419 19.5099 29.0629C19.0466 29.0629 18.5837 29.0629 18.1208 29.0629Z" fill="#F6D55C"/>
<path d="M18.7626 31.5024C18.9249 32.0094 19.1118 32.509 19.3393 33.0014C19.3471 33.016 19.3554 33.0382 19.3633 33.0529C19.453 33.0529 19.5423 33.0529 19.6315 33.0529C19.7453 33.0529 19.859 33.0529 19.9644 33.0529C19.8997 32.6558 19.8428 32.2592 19.7859 31.8551C19.7698 31.7375 19.7531 31.6199 19.7453 31.5024C19.4202 31.5024 19.0873 31.5024 18.7626 31.5024Z" fill="#F6D55C"/>
<path d="M19.607 33.5303C19.7452 33.7654 19.8914 34.0005 20.0699 34.2139C20.1351 34.2871 20.1998 34.3607 20.2729 34.4268C20.1757 34.1331 20.1106 33.8315 20.0458 33.5303C19.9076 33.5303 19.7531 33.5303 19.607 33.5303Z" fill="#F6D55C"/>
<path d="M17.7231 4.54971C18.0399 4.54971 18.3566 4.54971 18.6734 4.54971C18.7867 4.29994 18.9166 4.05769 19.0549 3.82256C19.1603 3.65354 19.2741 3.477 19.404 3.32263C19.4609 3.25652 19.5177 3.18329 19.5746 3.11719C18.9166 3.39625 18.2997 3.88115 17.7231 4.54971Z" fill="#F6D55C"/>
<path d="M17.3333 5.02747C16.9352 5.5567 16.5699 6.1738 16.2203 6.86453C16.7646 6.86453 17.3005 6.86453 17.8447 6.86453C17.9992 6.30601 18.1698 5.75501 18.3807 5.21865C18.4052 5.15255 18.4297 5.09357 18.4537 5.02747C18.0884 5.02747 17.7148 5.02747 17.3333 5.02747Z" fill="#F6D55C"/>
<path d="M16.0011 7.34192C15.7412 7.92261 15.4976 8.55436 15.2701 9.22331C15.9525 9.22331 16.6346 9.22331 17.3167 9.22331C17.4304 8.59117 17.5604 7.96654 17.7231 7.34192C17.1544 7.34192 16.5777 7.34192 16.0011 7.34192Z" fill="#F6D55C"/>
<path d="M15.1239 9.70068C14.9131 10.3989 14.7179 11.1411 14.5556 11.9126C15.3436 11.9126 16.1394 11.9126 16.9269 11.9126C16.9352 11.839 16.9431 11.7582 16.9514 11.6846C17.0328 11.0236 17.122 10.3621 17.2358 9.70068C16.5371 9.70068 15.8305 9.70068 15.1239 9.70068Z" fill="#F6D55C"/>
<path d="M14.4581 12.3904C14.3203 13.1175 14.1982 13.8672 14.1089 14.6458C14.9699 14.6458 15.8305 14.6458 16.6832 14.6458C16.7322 13.8965 16.7969 13.1397 16.8783 12.3904C16.0663 12.3904 15.2622 12.3904 14.4581 12.3904Z" fill="#F6D55C"/>
<path d="M14.0521 15.1236C13.9707 15.8951 13.9138 16.6887 13.8814 17.5045C14.7748 17.5045 15.6765 17.5045 16.5699 17.5045C16.5861 16.7109 16.6101 15.9172 16.6508 15.1236C15.7898 15.1236 14.9209 15.1236 14.0521 15.1236Z" fill="#F6D55C"/>
<path d="M13.8652 17.9748C13.8569 18.2907 13.8569 18.6065 13.8569 18.9224C13.8569 19.3927 13.8652 19.8558 13.8814 20.3114C14.7831 20.3114 15.6844 20.3114 16.5861 20.3114C16.5699 19.8483 16.5699 19.3855 16.5616 18.9153C16.5616 18.5994 16.5616 18.2907 16.5616 17.9748C15.6682 17.9748 14.7669 17.9748 13.8652 17.9748Z" fill="#F6D55C"/>
<path d="M13.8976 20.7888C13.9383 21.5899 14.0035 22.3689 14.0927 23.1258C14.9699 23.1258 15.8388 23.1258 16.716 23.1258C16.6591 22.3468 16.6184 21.5678 16.5939 20.7888C15.7006 20.7888 14.7993 20.7888 13.8976 20.7888Z" fill="#F6D55C"/>
<path d="M14.1575 23.6031C14.2551 24.3232 14.3688 25.0214 14.5066 25.69C15.3269 25.69 16.1473 25.69 16.9676 25.69C16.9352 25.4109 16.9028 25.1315 16.8783 24.8524C16.8376 24.4336 16.7969 24.0148 16.7646 23.6031C15.8874 23.6031 15.0268 23.6031 14.1575 23.6031Z" fill="#F6D55C"/>
<path d="M14.6042 26.1677C14.791 27.02 15.0102 27.8282 15.2622 28.5851C15.9766 28.5851 16.6998 28.5851 17.4142 28.5851C17.2598 27.7843 17.1299 26.976 17.0327 26.1677C16.2203 26.1677 15.4166 26.1677 14.6042 26.1677Z" fill="#F6D55C"/>
<path d="M15.4245 29.0629C15.6765 29.7682 15.9526 30.4297 16.2531 31.0246C16.8297 31.0246 17.4064 31.0246 17.983 31.0246C17.8692 30.628 17.7717 30.2238 17.6741 29.8268C17.6172 29.5699 17.5604 29.3202 17.5035 29.0629C16.8131 29.0629 16.1232 29.0629 15.4245 29.0629Z" fill="#F6D55C"/>
<path d="M16.4968 31.5024C16.8131 32.0827 17.1544 32.6044 17.5118 33.0529C17.91 33.0529 18.3076 33.0529 18.6975 33.0529C18.47 32.5458 18.2831 32.0312 18.113 31.5024C17.5849 31.5024 17.0406 31.5024 16.4968 31.5024Z" fill="#F6D55C"/>
<path d="M17.934 33.5303C18.5351 34.1695 19.1931 34.618 19.8669 34.831C19.7531 34.7281 19.656 34.618 19.5584 34.5076C19.3064 34.2064 19.1034 33.8758 18.9332 33.5303C18.5999 33.5303 18.2669 33.5303 17.934 33.5303Z" fill="#F6D55C"/>
<path d="M22.4416 3.51383C22.6769 3.83722 22.8638 4.18991 23.0344 4.5426C23.3428 4.5426 23.6434 4.5426 23.9523 4.5426C23.3835 3.88868 22.7745 3.40339 22.1248 3.12433C22.2386 3.25654 22.344 3.38162 22.4416 3.51383Z" fill="#F6D55C"/>
<path d="M24.1714 5.02747C23.863 5.02747 23.5541 5.02747 23.2457 5.02747C23.4404 5.4902 23.6027 5.96797 23.7493 6.44574C23.7895 6.58507 23.8302 6.7248 23.8709 6.87165C24.3989 6.87165 24.9187 6.87165 25.4463 6.87165C25.1055 6.18092 24.7319 5.56382 24.3338 5.03499C24.2852 5.02747 24.2283 5.02747 24.1714 5.02747Z" fill="#F6D55C"/>
<path d="M24.0008 7.34192C24.1631 7.96654 24.3014 8.59117 24.423 9.22331C25.081 9.22331 25.739 9.22331 26.4049 9.22331C26.1857 8.55436 25.942 7.92261 25.6738 7.34192C25.1134 7.34192 24.5613 7.34192 24.0008 7.34192Z" fill="#F6D55C"/>
<path d="M24.5044 9.70068C24.5774 10.1124 24.6426 10.5165 24.6995 10.9278C24.7481 11.2512 24.7887 11.5821 24.8294 11.9126C25.5929 11.9126 26.348 11.9126 27.1114 11.9126C26.9491 11.1411 26.754 10.3989 26.5427 9.70068C25.8689 9.70068 25.1864 9.70068 24.5044 9.70068Z" fill="#F6D55C"/>
<path d="M24.8942 12.3904C24.9834 13.1397 25.0486 13.889 25.1055 14.6458C25.9258 14.6458 26.7461 14.6458 27.566 14.6458C27.4768 13.8672 27.3551 13.1175 27.2169 12.3904C26.4373 12.3904 25.6659 12.3904 24.8942 12.3904Z" fill="#F6D55C"/>
<path d="M25.1379 15.1236C25.1703 15.5938 25.1948 16.0716 25.2109 16.5419C25.2271 16.8577 25.2354 17.1811 25.2433 17.497C26.0881 17.497 26.9408 17.497 27.7856 17.497C27.7528 16.6887 27.6959 15.8951 27.615 15.1165C26.7947 15.1236 25.9661 15.1236 25.1379 15.1236Z" fill="#F6D55C"/>
<path d="M25.2595 17.9748C25.2761 18.7534 25.2761 19.5324 25.2595 20.3114C26.1043 20.3114 26.9491 20.3114 27.7935 20.3114C27.8097 19.8558 27.818 19.3927 27.818 18.9224C27.818 18.6065 27.818 18.2907 27.8097 17.9748C26.957 17.9748 26.1043 17.9748 25.2595 17.9748Z" fill="#F6D55C"/>
<path d="M25.2516 20.7888C25.2354 21.4134 25.2109 22.038 25.1786 22.6626C25.1702 22.817 25.1624 22.9714 25.1541 23.1258C25.9661 23.1258 26.7702 23.1258 27.5826 23.1258C27.6719 22.3689 27.7366 21.5899 27.7773 20.7888C26.9325 20.7888 26.0881 20.7888 25.2516 20.7888Z" fill="#F6D55C"/>
<path d="M25.1134 23.6031C25.0648 24.3014 24.9996 24.9993 24.9266 25.69C25.6738 25.69 26.4211 25.69 27.1683 25.69C27.3061 25.0214 27.4199 24.3232 27.5174 23.6031C26.7133 23.6031 25.9175 23.6031 25.1134 23.6031Z" fill="#F6D55C"/>
<path d="M24.8697 26.1677C24.7887 26.7995 24.6995 27.4316 24.5936 28.0634C24.5612 28.2399 24.5367 28.4089 24.5044 28.5851C25.1379 28.5851 25.7714 28.5851 26.4127 28.5851C26.6647 27.8282 26.8839 27.02 27.0707 26.1677C26.3318 26.1677 25.6007 26.1677 24.8697 26.1677Z" fill="#F6D55C"/>
<path d="M24.4151 29.0629C24.3337 29.4817 24.2445 29.9004 24.1391 30.3121C24.0822 30.5472 24.017 30.7895 23.9522 31.0246C24.4396 31.0246 24.9266 31.0246 25.4139 31.0246C25.7145 30.4222 25.9906 29.7682 26.2426 29.0629C25.6331 29.0629 25.0241 29.0629 24.4151 29.0629Z" fill="#F6D55C"/>
<path d="M23.814 31.5024C23.7409 31.7375 23.6679 31.9651 23.5865 32.1931C23.4811 32.4797 23.3756 32.7663 23.2536 33.0529C23.5541 33.0529 23.8547 33.0529 24.1553 33.0529C24.5127 32.6044 24.8535 32.0827 25.1703 31.5024C24.7236 31.5024 24.269 31.5024 23.814 31.5024Z" fill="#F6D55C"/>
<path d="M23.0261 33.5303C23.002 33.5893 22.9696 33.6407 22.9368 33.6993C22.7583 34.0227 22.5553 34.3461 22.3033 34.6327C22.799 34.3829 23.2781 34.0156 23.7326 33.5378C23.5056 33.5303 23.2698 33.5303 23.0261 33.5303Z" fill="#F6D55C"/>
<mask id="mask1_441_189" style="mask-type:luminance" maskUnits="userSpaceOnUse" x="20" y="10" width="12" height="26">
<path d="M20.272 10.4373H31.9095V35.1599H20.272V10.4373Z" fill="white"/>
</mask>
<g mask="url(#mask1_441_189)">
<path d="M31.2454 10.4722H31.2292C31.1071 10.4722 30.9689 10.4872 30.8228 10.5019C30.8066 10.5019 30.7904 10.509 30.7742 10.509H30.7418L30.709 10.5165L30.6766 10.5236C30.5388 10.5458 30.4006 10.5826 30.2544 10.6265L30.2383 10.6341C30.1162 10.6709 29.9863 10.7223 29.8563 10.7738C29.8078 10.7956 29.7509 10.8177 29.7023 10.8399L29.6857 10.847L29.6695 10.8545C29.5886 10.8914 29.5072 10.9353 29.4258 10.9721C29.3689 11.0014 29.3204 11.0307 29.2718 11.0604L29.2635 11.0675L29.2556 11.075L29.2473 11.0821L29.239 11.0897C29.0605 11.1926 28.882 11.3101 28.6952 11.4495C28.3054 11.7361 27.9234 12.0741 27.5336 12.4782C27.2252 12.7945 26.9325 13.1397 26.6241 13.5292C26.0068 14.3082 25.4301 15.1972 24.8618 16.2331L24.8128 16.3139L24.8049 16.3285L24.7888 16.3582C24.1063 17.6075 23.4973 18.9521 22.9289 20.4804C22.4009 21.8836 21.9463 23.3827 21.5565 24.9407C21.4099 25.521 21.28 26.1088 21.1663 26.6895C21.1177 26.9099 21.077 27.1597 21.0284 27.417V27.4756L21.0201 27.4978L21.0123 27.5199V27.527C20.9471 27.8651 20.8902 28.2178 20.8333 28.578C20.5087 30.6502 20.3543 32.6559 20.3866 34.5297C20.3866 34.5373 20.3866 34.5519 20.3866 34.559C20.3866 34.5665 20.3866 34.5665 20.3866 34.5737C20.3866 34.6034 20.3866 34.6398 20.3866 34.6695C20.3949 34.7356 20.3949 34.7941 20.4033 34.8603V34.9046C20.4033 34.9632 20.4033 35.0221 20.4033 35.0807C20.4356 35.0883 20.4597 35.0883 20.4842 35.0954C20.5166 35.1029 20.5411 35.1029 20.5734 35.1104C20.6303 35.1175 20.6955 35.1251 20.7524 35.1322C20.7848 35.1322 20.8171 35.1322 20.8495 35.1322C20.9064 35.1322 20.9633 35.1322 21.0284 35.1322C21.077 35.1322 21.1177 35.1322 21.1663 35.1322C21.3452 35.1251 21.532 35.1029 21.7267 35.059H21.735C22.3033 34.9264 22.8638 34.6695 23.4487 34.2578C23.9846 33.8829 24.5044 33.4127 25.0403 32.8178C25.5194 32.2885 25.9744 31.6936 26.4373 30.9953C26.8433 30.3929 27.2252 29.739 27.6229 28.9968C28.3133 27.6961 28.9227 26.3075 29.491 24.7424C30.0024 23.3241 30.4574 21.8029 30.8228 20.2306C31.1885 18.6948 31.4646 17.1222 31.6514 15.5646C31.7892 14.4036 31.8706 13.2719 31.8951 12.177C31.8951 12.067 31.9029 11.9565 31.9029 11.8536V11.8022V11.795C31.9029 11.7875 31.9029 11.7729 31.9029 11.7657V11.5599C31.9029 11.4348 31.9029 11.3101 31.9029 11.1851C31.9029 11.1043 31.9029 11.016 31.9029 10.9353V10.906C31.8951 10.8399 31.8868 10.7663 31.8868 10.6926V10.6341C31.8868 10.5972 31.8868 10.5604 31.8868 10.5236C31.8789 10.5236 31.8789 10.5236 31.8789 10.5165C31.7323 10.4872 31.57 10.465 31.4156 10.4575C31.3915 10.4575 31.3591 10.4575 31.3346 10.4575C31.2939 10.4722 31.2694 10.4722 31.2454 10.4722Z" fill="#7ED957"/>
</g>
<path d="M27.8665 19.0253C27.8665 19.1136 27.9479 19.1944 28.0534 19.1944C28.1592 19.1944 28.2402 19.1211 28.2402 19.0253C28.2402 18.9299 28.1592 18.8563 28.0534 18.8563C27.9479 18.8563 27.8665 18.9299 27.8665 19.0253Z" fill="#7ED957"/>
<mask id="mask2_441_189" style="mask-type:luminance" maskUnits="userSpaceOnUse" x="20" y="10" width="12" height="26">
<path d="M20.272 10.4373H31.808V35.1599H20.272V10.4373Z" fill="white"/>
</mask>
<g mask="url(#mask2_441_189)">
<path d="M31.2292 10.4722C31.1071 10.4722 30.9689 10.4872 30.8228 10.5019C30.8066 10.5019 30.7904 10.509 30.7742 10.509H30.7418L30.709 10.5165L30.6766 10.5236C30.5388 10.5458 30.4006 10.5826 30.2544 10.6265L30.2383 10.6341C30.1162 10.6709 29.9863 10.7223 29.8563 10.7738C29.8078 10.7956 29.7509 10.8177 29.7023 10.8399L29.6857 10.847L29.6695 10.8545C29.5886 10.8914 29.5072 10.9353 29.4258 10.9721C29.3689 11.0014 29.3204 11.0307 29.2718 11.0604L29.2635 11.0675L29.2556 11.075L29.2473 11.0821L29.239 11.0897C29.0605 11.1926 28.882 11.3101 28.6952 11.4495C28.3054 11.7361 27.9234 12.0741 27.5336 12.4783C27.2252 12.7945 26.9325 13.1397 26.6241 13.5292C26.0068 14.3082 25.4301 15.1972 24.8618 16.2331L24.8128 16.3139L24.8049 16.3285L24.7888 16.3582C24.1063 17.6075 23.4973 18.9521 22.9289 20.4804C22.4009 21.8836 21.9463 23.3827 21.5565 24.9407C21.4099 25.521 21.28 26.1088 21.1663 26.6895C21.1177 26.9099 21.077 27.1597 21.0284 27.417V27.4756L21.0201 27.4978L21.0123 27.5199V27.527C20.9471 27.8651 20.8902 28.2178 20.8333 28.578C20.5087 30.6502 20.3543 32.6487 20.3866 34.5297C20.3866 34.5373 20.3866 34.5519 20.3866 34.559C20.3866 34.5665 20.3866 34.5665 20.3866 34.5737C20.3866 34.6034 20.3866 34.6398 20.3866 34.6695C20.3949 34.7356 20.3949 34.7941 20.4033 34.8603V34.9046C20.4033 34.9632 20.4033 35.0221 20.4033 35.0807C20.4356 35.0883 20.4597 35.0883 20.4925 35.0954C20.5249 35.1029 20.5494 35.1029 20.5818 35.1104C20.6386 35.1175 20.7034 35.1251 20.7603 35.1322C20.7931 35.1322 20.8254 35.1322 20.8578 35.1322C20.9147 35.1322 20.9716 35.1397 21.0363 35.1397C21.0853 35.1397 21.126 35.1397 21.1746 35.1397C21.2153 35.1397 21.2638 35.1322 21.3045 35.1322C21.3045 35.0368 21.3128 34.9485 21.3128 34.8531C21.3938 33.0968 21.5968 31.3409 21.8894 29.6068C22.2141 27.7182 22.6529 25.8372 23.205 23.9926C23.7493 22.1853 24.3989 20.3997 25.2026 18.6655C25.5929 17.8204 26.0068 16.99 26.4779 16.1817C26.9491 15.3663 27.4527 14.5651 28.0293 13.8083C28.5893 13.0661 29.1988 12.3536 29.9132 11.7214C30.4574 11.244 31.0664 10.8031 31.7406 10.5019C31.6352 10.4872 31.5293 10.4722 31.4239 10.4722C31.3994 10.4722 31.367 10.4722 31.3425 10.4722C31.3184 10.4722 31.3023 10.4722 31.2778 10.4722H31.2292Z" fill="#7ED957"/>
</g>
<mask id="mask3_441_189" style="mask-type:luminance" maskUnits="userSpaceOnUse" x="21" y="10" width="11" height="26">
<path d="M21.728 10.944H31.9095V35.0613H21.728V10.944Z" fill="white"/>
</mask>
<g mask="url(#mask3_441_189)">
<path d="M31.0017 11.4791C30.2706 12.0008 29.6454 12.6179 29.0767 13.2794C28.3784 14.0948 27.7773 14.9767 27.2252 15.8804C26.6809 16.7841 26.1857 17.7174 25.7469 18.6726C25.5929 19.0106 25.4384 19.3411 25.2923 19.6867C24.5451 21.4355 23.9277 23.2358 23.4163 25.0582C22.9044 26.9024 22.5063 28.7687 22.2224 30.6501C22.0027 32.1048 21.8566 33.5745 21.7997 35.0439C21.8487 35.0292 21.8973 35.0221 21.9463 35.0074C21.9542 34.9192 21.9704 34.8309 21.9787 34.7426C22.0924 33.964 22.2547 33.1921 22.4416 32.4207C22.8314 30.797 23.3266 29.1875 23.863 27.5931C24.4151 25.9547 25.0162 24.3306 25.6659 22.7216C26.2426 21.3033 26.8432 19.8925 27.4929 18.4964C27.5012 18.4743 27.5091 18.4596 27.5174 18.445C27.5905 18.2831 27.6636 18.1216 27.7449 17.9672C28.4594 16.4682 29.2149 14.9838 30.0838 13.5513C30.4819 12.8899 30.9041 12.2359 31.3915 11.626C31.5293 11.4569 31.6676 11.2879 31.8137 11.1335C31.8382 11.1114 31.8544 11.0896 31.8789 11.0674C31.8789 11.0382 31.8789 11.0013 31.8789 10.972C31.57 11.1114 31.2777 11.2879 31.0017 11.4791Z" fill="#7ED957"/>
</g>
<mask id="mask4_441_189" style="mask-type:luminance" maskUnits="userSpaceOnUse" x="22" y="11" width="10" height="24">
<path d="M22.4 11.7546H31.9095V34.8586H22.4V11.7546Z" fill="white"/>
</mask>
<g mask="url(#mask4_441_189)">
<path d="M31.1802 12.7869C30.8879 13.2204 30.6119 13.6689 30.352 14.1169C29.8239 15.0206 29.3287 15.9394 28.8658 16.8723C28.6707 17.2543 28.4839 17.6367 28.2971 18.0262C28.1995 18.2316 28.1024 18.445 28.0048 18.6508C28.0048 18.6579 27.9965 18.6579 27.9965 18.6655C27.9965 18.6726 27.9886 18.6801 27.9886 18.6801C27.9073 18.8563 27.818 19.0399 27.7366 19.2236C27.5581 19.6131 27.3875 20.0026 27.2169 20.3921C26.5186 21.994 25.8606 23.6177 25.2516 25.2565C24.6588 26.8509 24.1063 28.4675 23.6272 30.0916C23.3918 30.8924 23.1643 31.7007 22.9696 32.5165C22.7907 33.2587 22.6284 34.008 22.5146 34.7648C22.5146 34.7794 22.5063 34.7941 22.5063 34.8087C22.5146 34.8016 22.5308 34.8016 22.5391 34.7941C22.9206 34.3238 23.2536 33.8314 23.5786 33.3248C23.9523 32.7441 24.2931 32.1487 24.626 31.5463C25.284 30.356 25.8851 29.1436 26.4534 27.924C27.5091 25.6606 28.4594 23.3533 29.3125 21.0238C29.8401 19.5767 30.3358 18.1216 30.7742 16.6519C31.2047 15.2189 31.5945 13.7714 31.8461 12.3092C31.8461 12.2874 31.8623 12.2652 31.8706 12.2506C31.8706 12.2431 31.8706 12.2284 31.8706 12.2213C31.8706 12.1109 31.8789 12.0008 31.8789 11.8979V11.8243C31.6352 12.133 31.3994 12.4564 31.1802 12.7869Z" fill="#7ED957"/>
</g>
<path d="M31.5945 15.6746C31.2939 16.7549 30.961 17.8351 30.6036 18.9007C30.1162 20.3554 29.5886 21.8029 29.0198 23.2358C28.4515 24.6763 27.8504 26.1017 27.2007 27.5124C26.5672 28.8939 25.9013 30.2678 25.1703 31.6125C24.8049 32.2814 24.423 32.95 24.0091 33.5964C23.9033 33.7583 23.8061 33.9126 23.7003 34.0741C24.1391 33.7361 24.5774 33.3248 25.0241 32.8324C25.5032 32.3032 25.9582 31.7083 26.4211 31.01C26.8271 30.4075 27.209 29.7536 27.6067 29.0114C28.2971 27.7107 28.9061 26.3221 29.4748 24.757C29.9863 23.3387 30.4413 21.8176 30.8066 20.2453C31.1723 18.7095 31.4484 17.1368 31.6352 15.5792C31.6352 15.5571 31.6431 15.5353 31.6431 15.5131C31.6269 15.5646 31.6107 15.616 31.5945 15.6746Z" fill="#7ED957"/>
<path d="M29.0443 13.3159C29.0529 13.3085 29.0611 13.294 29.0696 13.2866C29.0611 13.294 29.0529 13.301 29.0443 13.3159Z" fill="#7ED957"/>
<mask id="mask5_441_189" style="mask-type:luminance" maskUnits="userSpaceOnUse" x="10" y="10" width="12" height="26">
<path d="M10.08 10.336H21.728V35.1599H10.08V10.336Z" fill="white"/>
</mask>
<g mask="url(#mask5_441_189)">
<path d="M10.7546 10.4357H10.7708C10.8929 10.4357 11.0307 10.4504 11.1768 10.465C11.1934 10.465 11.2096 10.4722 11.2258 10.4722H11.2582L11.2905 10.4797L11.3234 10.4872C11.4612 10.509 11.5994 10.5458 11.7455 10.5897L11.7617 10.5972C11.8838 10.6341 12.0137 10.6855 12.1437 10.737C12.1922 10.7587 12.2491 10.7809 12.2977 10.8031L12.3139 10.8102L12.33 10.8177C12.4114 10.8545 12.4928 10.8985 12.5737 10.9353C12.6306 10.9646 12.6796 10.9939 12.7282 11.0236L12.7365 11.0307L12.7444 11.0382L12.7527 11.0453L12.7605 11.0528C12.9395 11.1558 13.118 11.2733 13.3048 11.4131C13.6946 11.6996 14.0765 12.0373 14.4664 12.4414C14.7748 12.7577 15.067 13.1029 15.3759 13.4924C15.9932 14.2714 16.5699 15.1604 17.1382 16.1963L17.1867 16.2775L17.195 16.2921L17.2112 16.3214C17.8933 17.5706 18.5027 18.9153 19.071 20.4436C19.5991 21.8472 20.0537 23.3462 20.4435 24.9038C20.5896 25.4841 20.7195 26.0723 20.8333 26.6526C20.8823 26.8731 20.923 27.1229 20.9715 27.3802V27.4388L20.9799 27.4609L20.9877 27.4831V27.4902C21.0529 27.8283 21.1098 28.181 21.1662 28.5412C21.4913 30.6133 21.6457 32.6194 21.6129 34.4929C21.6129 34.5004 21.6129 34.5151 21.6129 34.5222C21.6129 34.5297 21.6129 34.5297 21.6129 34.5372C21.6129 34.5665 21.6129 34.6033 21.6129 34.6326C21.605 34.6987 21.605 34.7573 21.5967 34.8238V34.8678C21.5967 34.9263 21.5967 34.9853 21.5967 35.0439C21.5644 35.0514 21.5399 35.0514 21.5158 35.059C21.483 35.0661 21.4589 35.0661 21.4261 35.0736C21.3697 35.0807 21.3045 35.0882 21.2476 35.0954C21.2152 35.0954 21.1829 35.0954 21.15 35.0954C21.0932 35.0954 21.0363 35.0954 20.9715 35.0954C20.923 35.0954 20.8823 35.0954 20.8333 35.0954C20.6548 35.0882 20.468 35.0661 20.2729 35.0221H20.265C19.6962 34.8899 19.1362 34.6326 18.5513 34.221C18.0154 33.8465 17.4956 33.3763 16.9597 32.7809C16.4802 32.2517 16.0256 31.6568 15.5627 30.9585C15.1567 30.3561 14.7748 29.7021 14.3767 28.96C13.6867 27.6592 13.0773 26.2707 12.509 24.7055C11.9971 23.2873 11.5425 21.7661 11.1768 20.1938C10.8115 18.658 10.5354 17.0857 10.3486 15.5277C10.2104 14.3668 10.1294 13.2351 10.1049 12.1402C10.1049 12.0302 10.097 11.9197 10.097 11.8172V11.7657V11.7582C10.097 11.7511 10.097 11.7361 10.097 11.7289V11.5306C10.097 11.4055 10.097 11.2805 10.097 11.1558C10.097 11.075 10.097 10.9867 10.097 10.906V10.8763C10.1049 10.8102 10.1132 10.737 10.1132 10.6633V10.6048C10.1132 10.568 10.1132 10.5311 10.1132 10.4943C10.1211 10.4943 10.1211 10.4943 10.1211 10.4872C10.2672 10.4575 10.43 10.4357 10.584 10.4282C10.6085 10.4282 10.6409 10.4282 10.6654 10.4282C10.7139 10.4357 10.7305 10.4357 10.7546 10.4357Z" fill="#7ED957"/>
</g>
<path d="M14.1335 18.9814C14.1335 19.0697 14.0521 19.1504 13.9466 19.1504C13.8408 19.1504 13.7598 19.0768 13.7598 18.9814C13.7598 18.886 13.8408 18.8124 13.9466 18.8124C14.0521 18.8124 14.1335 18.8931 14.1335 18.9814Z" fill="#7ED957"/>
<mask id="mask6_441_189" style="mask-type:luminance" maskUnits="userSpaceOnUse" x="10" y="10" width="12" height="26">
<path d="M10.192 10.336H21.728V35.1599H10.192V10.336Z" fill="white"/>
</mask>
<g mask="url(#mask6_441_189)">
<path d="M10.7708 10.4357C10.8929 10.4357 11.0307 10.4504 11.1768 10.465C11.1934 10.465 11.2096 10.4721 11.2258 10.4721H11.2582L11.2906 10.4797L11.3234 10.4872C11.4612 10.509 11.5994 10.5458 11.7456 10.5897L11.7617 10.5972C11.8838 10.634 12.0137 10.6855 12.1437 10.737C12.1922 10.7587 12.2491 10.7809 12.2977 10.8031L12.3139 10.8102L12.3301 10.8177C12.4114 10.8545 12.4928 10.8985 12.5737 10.9353C12.6306 10.9646 12.6796 10.9939 12.7282 11.0235L12.7365 11.0307L12.7444 11.0382L12.7527 11.0453L12.7606 11.0528C12.9395 11.1558 13.118 11.2733 13.3048 11.413C13.6946 11.6996 14.0766 12.0373 14.4664 12.4414C14.7748 12.7577 15.0671 13.1029 15.3759 13.4924C15.9932 14.2714 16.5699 15.1604 17.1382 16.1963L17.1867 16.2774L17.1951 16.2921L17.2112 16.3214C17.8933 17.5706 18.5027 18.9153 19.0711 20.4436C19.5991 21.8472 20.0537 23.3462 20.4435 24.9038C20.5896 25.4841 20.7196 26.0723 20.8333 26.6526C20.8823 26.8731 20.923 27.1229 20.9716 27.3802V27.4388L20.9799 27.4609L20.9877 27.4831V27.4902C21.0529 27.8283 21.1098 28.1809 21.1662 28.5411C21.4913 30.6133 21.6457 32.6119 21.6129 34.4929C21.6129 34.5004 21.6129 34.5151 21.6129 34.5222C21.6129 34.5297 21.6129 34.5297 21.6129 34.5372C21.6129 34.5665 21.6129 34.6033 21.6129 34.6326C21.6051 34.6987 21.6051 34.7573 21.5967 34.8238V34.8678C21.5967 34.9263 21.5967 34.9853 21.5967 35.0439C21.5644 35.0514 21.5399 35.0514 21.5075 35.0589C21.4751 35.0661 21.4506 35.0661 21.4182 35.0736C21.3614 35.0807 21.2962 35.0882 21.2397 35.0954C21.2069 35.0954 21.1746 35.0954 21.1422 35.0954C21.0853 35.0954 21.0284 35.1029 20.9632 35.1029C20.9147 35.1029 20.874 35.1029 20.8254 35.1029C20.7847 35.1029 20.7362 35.0954 20.6955 35.0954C20.6955 35 20.6872 34.9117 20.6872 34.8163C20.6062 33.06 20.4032 31.3041 20.1106 29.5699C19.7859 27.6814 19.3471 25.8004 18.795 23.9558C18.2507 22.1484 17.6011 20.3628 16.7969 18.6287C16.4071 17.7836 15.9932 16.9531 15.5221 16.1448C15.0509 15.3294 14.5473 14.5283 13.9707 13.7714C13.4102 13.0296 12.8012 12.3167 12.0868 11.6846C11.5426 11.2072 10.9336 10.7663 10.2594 10.465C10.3648 10.4504 10.4702 10.4357 10.5761 10.4357C10.6002 10.4357 10.633 10.4357 10.6571 10.4357C10.6816 10.4357 10.6977 10.4357 10.7222 10.4357H10.7708Z" fill="#7ED957"/>
</g>
<path d="M11.0066 11.4349C11.7372 11.9566 12.3629 12.5741 12.9312 13.2351C13.6299 14.0509 14.2306 14.9324 14.7831 15.8365C15.3269 16.7402 15.8226 17.6736 16.261 18.6287C16.4154 18.9668 16.5699 19.2973 16.716 19.6429C17.4632 21.3916 18.0801 23.1919 18.592 25.0139C19.1034 26.8585 19.5016 28.7249 19.7859 30.6059C20.0051 32.0609 20.1512 33.5303 20.2081 35C20.1596 34.9854 20.1106 34.9778 20.062 34.9632C20.0537 34.8749 20.0375 34.787 20.0296 34.6988C19.9159 33.9198 19.7531 33.1483 19.5663 32.3768C19.1765 30.7527 18.6812 29.1436 18.1453 27.5492C17.5932 25.9105 16.9921 24.2868 16.3424 22.6773C15.7657 21.2594 15.1646 19.8483 14.5149 18.4522C14.5066 18.4304 14.4987 18.4154 14.4904 18.4007C14.4174 18.2392 14.3443 18.0777 14.2634 17.9234C13.5485 16.4243 12.7934 14.94 11.9241 13.507C11.5264 12.8456 11.1037 12.1917 10.6168 11.5821C10.4786 11.4131 10.3403 11.2441 10.1942 11.0897C10.1701 11.0675 10.1535 11.0454 10.1294 11.0236C10.1294 10.9939 10.1294 10.9575 10.1294 10.9278C10.43 11.0675 10.7222 11.2441 11.0066 11.4349Z" fill="#7ED957" fill-opacity="0.9"/>
<path d="M10.8198 12.7431C11.1121 13.1765 11.3881 13.6246 11.648 14.0731C12.1761 14.9768 12.6713 15.8951 13.1342 16.8285C13.3293 17.2104 13.5161 17.5924 13.7029 17.9819C13.8001 18.1878 13.8976 18.4007 13.9952 18.6065C13.9952 18.6141 14.0035 18.6141 14.0035 18.6212C14.0035 18.6287 14.0114 18.6358 14.0114 18.6358C14.0927 18.8124 14.182 18.996 14.2634 19.1797C14.4419 19.5692 14.6125 19.9587 14.7831 20.3482C15.4814 21.9498 16.1394 23.5739 16.7484 25.2126C17.3412 26.807 17.8933 28.4236 18.3728 30.0473C18.6082 30.8485 18.8357 31.6568 19.0304 32.4722C19.2093 33.2144 19.3716 33.9641 19.4854 34.7209C19.4854 34.7356 19.4933 34.7502 19.4933 34.7649C19.4854 34.7573 19.4692 34.7573 19.4609 34.7502C19.0794 34.28 18.7464 33.7875 18.4214 33.2805C18.0478 32.7002 17.7065 32.1049 17.3736 31.5024C16.716 30.3121 16.1149 29.0997 15.5466 27.8797C14.4904 25.6168 13.5402 23.3094 12.6875 20.98C12.1599 19.5324 11.6642 18.0777 11.2258 16.608C10.7953 15.1751 10.4055 13.7275 10.1535 12.2653C10.1535 12.2431 10.1373 12.2214 10.1294 12.2063C10.1294 12.1992 10.1294 12.1845 10.1294 12.177C10.1294 12.067 10.1211 11.9565 10.1211 11.8536V11.8097C10.3648 12.0888 10.6002 12.4197 10.8198 12.7431Z" fill="#7ED957"/>
<path d="M10.4055 15.6307C10.7061 16.7109 11.039 17.7911 11.3964 18.8563C11.8838 20.3114 12.4114 21.759 12.9802 23.1919C13.5485 24.6319 14.1496 26.0573 14.7993 27.4685C15.4328 28.8499 16.0987 30.2239 16.8297 31.5685C17.1951 32.2371 17.5766 32.906 17.9909 33.5524C18.0967 33.7139 18.1939 33.8683 18.2997 34.0302C17.8609 33.6922 17.4226 33.2805 16.9759 32.7885C16.4968 32.2592 16.0418 31.6639 15.5789 30.9661C15.1729 30.3636 14.791 29.7093 14.3933 28.9675C13.7029 27.6668 13.0935 26.2778 12.5252 24.7127C12.0137 23.2948 11.5587 21.7736 11.1934 20.201C10.8277 18.6655 10.5516 17.0929 10.3648 15.5353C10.3648 15.5131 10.3569 15.4909 10.3569 15.4692C10.3731 15.5206 10.3893 15.5792 10.4055 15.6307Z" fill="#7ED957"/>
<path d="M12.9565 13.2716C12.9479 13.2645 12.9398 13.2497 12.9312 13.2426C12.9398 13.2571 12.9479 13.2645 12.9565 13.2716Z" fill="#7ED957"/>
</g>
<defs>
<clipPath id="clip0_441_189">
<rect width="42" height="38" fill="white"/>
</clipPath>
</defs>
</svg>
