<svg width="360" height="80" viewBox="0 0 360 80" fill="none" xmlns="http://www.w3.org/2000/svg">
<path d="M68.201 24C70.2105 24 71.9737 24.4464 73.4886 25.3391C75.0053 26.2319 76.2737 27.704 77.2939 29.7548C78.3132 31.8064 79.0933 34.561 79.6351 38.0196C80.176 41.4764 80.494 45.783 80.5882 50.9404C80.619 52.1996 80.2947 53.1739 79.6133 53.8624C78.932 54.5517 77.958 54.8959 76.6923 54.8959H75.9965C73.3672 54.8959 72.0534 53.7542 72.0534 51.4691C72.0534 50.8837 72.0534 50.312 72.0534 49.7558C72.0534 49.1978 72.0371 48.6398 72.0063 48.0836H63.794C63.794 48.5531 63.7849 49.0441 63.7686 49.5566C63.7541 50.0699 63.7469 50.6039 63.7469 51.1601C63.7469 53.6512 62.4476 54.8959 59.851 54.8959C58.6133 54.8959 57.6547 54.5749 56.9734 53.9311C56.2939 53.2855 55.9704 52.3473 56.0021 51.1155C56.0329 49.9137 56.0637 48.772 56.0927 47.6887C56.1235 46.6037 56.1706 45.5633 56.2341 44.5675C56.6037 39.381 57.2905 35.2855 58.2962 32.2819C59.301 29.2792 60.631 27.1478 62.2864 25.8885C63.9408 24.6301 65.9123 24 68.201 24ZM63.8882 42.8541H71.8215C71.6348 39.5716 71.3558 37.0152 70.9843 35.1834C70.6146 33.3524 70.1435 32.0639 69.5709 31.3171C68.9983 30.5686 68.3251 30.1943 67.5522 30.1943C66.7785 30.1943 66.137 30.5686 65.6278 31.3171C65.1177 32.0639 64.7308 33.3524 64.4681 35.1834C64.2044 37.0152 64.0115 39.5716 63.8882 42.8541Z" fill="#009707"/>
<path d="M99.7903 55.3354C94.8415 55.3354 91.2238 54.0255 88.936 51.4039C86.6474 48.7806 85.504 44.8611 85.504 39.6437C85.504 29.2148 90.0495 24 99.1416 24C102.266 24 104.771 24.5932 106.658 25.7786C108.544 26.9649 109.735 28.7161 110.228 31.0321C110.476 32.2322 110.214 33.161 109.441 33.8202C108.668 34.4795 107.647 34.8091 106.379 34.8091H105.821C105.018 34.8091 104.408 34.6778 103.991 34.4142C103.572 34.1516 103.239 33.7567 102.99 33.2296C102.744 32.7008 102.466 32.0708 102.157 31.3377C101.755 30.402 100.766 29.9333 99.1887 29.9333C97.8885 29.9333 96.8593 30.2484 96.1009 30.8776C95.3444 31.5077 94.8035 32.5257 94.4773 33.9335C94.153 35.3396 93.9917 37.2427 93.9917 39.6437C93.9917 42.2241 94.2463 44.2027 94.7564 45.5804C95.2683 46.9565 95.9496 47.9007 96.8004 48.4132C97.6502 48.9265 98.5699 49.1823 99.5584 49.1823C100.64 49.1823 101.568 49.0209 102.342 48.6982C103.115 48.3754 103.501 47.9359 103.501 47.3797V43.9975H102.762C100.133 43.9975 98.819 43.0593 98.819 41.1819C98.819 39.3072 100.133 38.3698 102.762 38.3698H106.981C109.609 38.3698 110.924 39.6153 110.924 42.1056V48.0836C110.924 48.9926 110.853 49.748 110.713 50.3498C110.576 50.9498 110.29 51.4691 109.858 51.9086C108.899 52.8752 107.637 53.6873 106.075 54.3465C104.513 55.0058 102.419 55.3354 99.7903 55.3354Z" fill="#009707"/>
<path d="M120.666 54.8959C118.037 54.8959 116.723 53.6512 116.723 51.1601C116.754 49.2562 116.777 47.3445 116.792 45.4259C116.808 43.5057 116.817 41.5785 116.817 39.6437C116.817 37.7397 116.808 35.828 116.792 33.9095C116.777 31.9918 116.754 30.0801 116.723 28.1753C116.723 25.6851 118.037 24.4395 120.666 24.4395H128.646C133.345 24.4395 136.762 25.1571 138.895 26.5924C141.031 28.0277 142.099 30.3574 142.099 33.5799C142.099 35.5439 141.534 37.229 140.403 38.6342C139.274 40.0403 137.721 40.9777 135.742 41.4463V41.6215C137.288 42.061 138.556 43.0001 139.544 44.437C140.534 45.8723 141.354 47.9522 142.005 50.676C142.314 51.9945 142.136 53.028 141.472 53.7766C140.807 54.5234 139.794 54.8959 138.431 54.8959H136.949C134.535 54.8959 133.144 53.7096 132.774 51.3352C132.557 49.93 132.246 48.6707 131.843 47.5582C131.441 46.444 130.87 45.5564 130.129 44.8972C129.386 44.2379 128.382 43.9083 127.113 43.9083H125.399C125.399 45.11 125.399 46.3187 125.399 47.5342C125.399 48.7497 125.414 49.9583 125.443 51.1601C125.443 53.6512 124.128 54.8959 121.499 54.8959H120.666ZM125.399 39.0737H126.976C129.172 39.0737 130.748 38.708 131.705 37.9749C132.664 37.2427 133.144 36.0409 133.144 34.3696C133.144 32.9944 132.71 32.0064 131.843 31.4064C130.977 30.8046 129.587 30.5033 127.671 30.5033H125.443C125.414 31.5884 125.399 32.7687 125.399 34.0434C125.399 35.3164 125.399 36.9929 125.399 39.0737Z" fill="#009707"/>
<path d="M160.837 55.3354C151.745 55.3354 147.199 50.1051 147.199 39.6437C147.199 29.2148 151.745 24 160.837 24C169.899 24 174.431 29.2148 174.431 39.6437C174.431 50.1051 169.899 55.3354 160.837 55.3354ZM160.837 49.4021C162.074 49.4021 163.031 49.1094 163.711 48.5231C164.392 47.9376 164.872 46.9333 165.15 45.5118C165.43 44.0902 165.57 42.1348 165.57 39.6437C165.57 37.1534 165.43 35.2057 165.15 33.7996C164.872 32.3944 164.392 31.3986 163.711 30.8123C163.031 30.2269 162.074 29.9333 160.837 29.9333C159.631 29.9333 158.681 30.2269 157.985 30.8123C157.289 31.3986 156.793 32.3944 156.499 33.7996C156.206 35.2057 156.06 37.1534 156.06 39.6437C156.06 42.1348 156.206 44.0902 156.499 45.5118C156.793 46.9333 157.289 47.9376 157.985 48.5231C158.681 49.1094 159.631 49.4021 160.837 49.4021Z" fill="#009707"/>
<path d="M184.217 54.8959C181.588 54.8959 180.274 53.6512 180.274 51.1601V28.1753C180.274 25.6851 181.588 24.4395 184.217 24.4395H185.051C187.679 24.4395 188.994 25.6851 188.994 28.1753V51.1601C188.994 53.6512 187.679 54.8959 185.051 54.8959H184.217Z" fill="#009707"/>
<path d="M217.06 24.4395C219.597 24.4395 220.834 25.6851 220.771 28.1753C220.739 35.8212 220.739 43.4825 220.771 51.1601C220.802 52.3619 220.477 53.2855 219.796 53.9311C219.117 54.5749 218.144 54.8959 216.875 54.8959H216.179C214.014 54.8959 212.468 53.974 211.54 52.1284L202.585 34.5035H202.495C202.554 37.6101 202.647 40.4815 202.77 43.1185C202.895 45.7556 203.051 48.3926 203.237 51.0296C203.391 53.6074 202.216 54.8959 199.711 54.8959C198.505 54.8959 197.577 54.5749 196.928 53.9311C196.277 53.2855 195.968 52.3619 196 51.1601C196.031 43.4825 196.031 35.8212 196 28.1753C195.968 26.9735 196.292 26.0516 196.971 25.4078C197.653 24.7623 198.628 24.4395 199.896 24.4395H202.263C204.427 24.4395 205.974 25.3623 206.901 27.207L214.139 41.491H214.229C214.169 39.0874 214.075 36.8023 213.95 34.634C213.827 32.4665 213.688 30.3574 213.534 28.3058C213.347 25.7288 214.523 24.4395 217.06 24.4395Z" fill="#009707"/>
<path d="M237.886 55.3354C231.701 55.3354 228.021 53.343 226.847 49.3574C226.506 48.1557 226.699 47.2183 227.427 46.5453C228.154 45.8723 229.105 45.5358 230.279 45.5358H230.696C231.44 45.5358 232.02 45.668 232.436 45.9307C232.853 46.1942 233.24 46.5384 233.595 46.9642C233.952 47.3883 234.393 47.8775 234.918 48.4338C235.568 49.0201 236.65 49.3128 238.165 49.3128C240.608 49.3128 241.829 48.4201 241.829 46.6346C241.829 45.6096 241.474 44.8104 240.764 44.2379C240.053 43.6662 239.133 43.1898 238.002 42.8095C236.873 42.4301 235.683 42.0421 234.429 41.6455C233.177 41.2498 231.987 40.7373 230.859 40.1072C229.73 39.478 228.81 38.6136 228.097 37.5148C227.387 36.416 227.032 34.9731 227.032 33.185C227.032 29.8732 228.052 27.5143 230.094 26.1083C232.136 24.703 235.028 24 238.77 24C242.387 24 245.115 24.6962 246.954 26.0877C248.795 27.48 249.824 29.4792 250.042 32.0862C250.133 33.288 249.815 34.1971 249.088 34.8125C248.364 35.4263 247.412 35.7328 246.236 35.7328C245.062 35.7328 244.227 35.4117 243.732 34.7679C243.236 34.1224 242.849 33.1841 242.572 31.9523C242.357 31.0166 241.924 30.3728 241.275 30.0226C240.624 29.6707 239.743 29.4938 238.629 29.4938C237.3 29.4938 236.372 29.8166 235.846 30.4621C235.321 31.1059 235.059 31.9549 235.059 33.0099C235.059 34.0357 235.337 34.8486 235.893 35.4478C236.448 36.0478 237.19 36.5242 238.118 36.8762C239.046 37.229 240.058 37.5449 241.155 37.8238C242.254 38.1011 243.352 38.4161 244.45 38.7681C245.549 39.1183 246.562 39.5802 247.49 40.1519C248.418 40.7218 249.159 41.4832 249.715 42.4352C250.273 43.3881 250.553 44.6113 250.553 46.1058C250.553 49.1231 249.484 51.4159 247.349 52.9834C245.215 54.5517 242.061 55.3354 237.886 55.3354Z" fill="#009707"/>
<path d="M259.782 54.8959C257.153 54.8959 255.839 53.6512 255.839 51.1601V28.1753C255.839 25.6851 257.153 24.4395 259.782 24.4395H260.616C263.244 24.4395 264.559 25.6851 264.559 28.1753V51.1601C264.559 53.6512 263.244 54.8959 260.616 54.8959H259.782Z" fill="#009707"/>
<path d="M284.645 55.3354C279.696 55.3354 276.078 54.0255 273.791 51.4039C271.502 48.7806 270.359 44.8611 270.359 39.6437C270.359 29.2148 274.904 24 283.996 24C287.12 24 289.625 24.5932 291.513 25.7786C293.399 26.9649 294.59 28.7161 295.083 31.0321C295.331 32.2322 295.069 33.161 294.296 33.8202C293.522 34.4795 292.502 34.8091 291.234 34.8091H290.676C289.873 34.8091 289.263 34.6778 288.845 34.4142C288.427 34.1516 288.093 33.7567 287.845 33.2296C287.599 32.7008 287.321 32.0708 287.012 31.3377C286.61 30.402 285.621 29.9333 284.043 29.9333C282.743 29.9333 281.714 30.2484 280.956 30.8776C280.199 31.5077 279.658 32.5257 279.332 33.9335C279.008 35.3396 278.846 37.2427 278.846 39.6437C278.846 42.2241 279.101 44.2027 279.611 45.5804C280.123 46.9565 280.804 47.9007 281.655 48.4132C282.505 48.9265 283.425 49.1823 284.413 49.1823C285.495 49.1823 286.423 49.0209 287.196 48.6982C287.969 48.3754 288.356 47.9359 288.356 47.3797V43.9975H287.617C284.988 43.9975 283.674 43.0593 283.674 41.1819C283.674 39.3072 284.988 38.3698 287.617 38.3698H291.835C294.464 38.3698 295.778 39.6153 295.778 42.1056V48.0836C295.778 48.9926 295.708 49.748 295.568 50.3498C295.43 50.9498 295.145 51.4691 294.713 51.9086C293.753 52.8752 292.492 53.6873 290.929 54.3465C289.368 55.0058 287.273 55.3354 284.645 55.3354Z" fill="#009707"/>
<path d="M326.86 39.6437C326.828 41.5485 326.82 43.461 326.834 45.3813C326.851 47.2998 326.86 49.2261 326.86 51.1601C326.89 52.3619 326.566 53.2855 325.885 53.9311C325.205 54.5749 324.232 54.8959 322.964 54.8959H322.083C320.815 54.8959 319.84 54.5749 319.158 53.9311C318.479 53.2855 318.154 52.3619 318.183 51.1601C318.214 49.7824 318.231 48.4055 318.231 47.0294C318.231 45.6517 318.231 44.2885 318.231 42.94H310.254C310.254 44.2885 310.254 45.6517 310.254 47.0294C310.254 48.4055 310.254 49.7824 310.254 51.1601C310.283 52.3619 309.957 53.2855 309.275 53.9311C308.596 54.5749 307.623 54.8959 306.354 54.8959H305.521C304.252 54.8959 303.277 54.5749 302.596 53.9311C301.916 53.2855 301.593 52.3619 301.625 51.1601C301.625 49.2261 301.632 47.2998 301.646 45.3813C301.663 43.461 301.672 41.5485 301.672 39.6437C301.672 37.7397 301.663 35.828 301.646 33.9095C301.632 31.9918 301.625 30.0801 301.625 28.1753C301.593 26.9735 301.916 26.0516 302.596 25.4078C303.277 24.7623 304.252 24.4395 305.521 24.4395H306.354C307.623 24.4395 308.596 24.7623 309.275 25.4078C309.957 26.0516 310.283 26.9735 310.254 28.1753C310.254 29.6106 310.254 31.0544 310.254 32.5051C310.254 33.9541 310.254 35.4117 310.254 36.8762H318.231C318.231 35.4117 318.231 33.9541 318.231 32.5051C318.231 31.0544 318.214 29.6106 318.183 28.1753C318.154 26.9735 318.479 26.0516 319.158 25.4078C319.84 24.7623 320.815 24.4395 322.083 24.4395H322.964C324.232 24.4395 325.205 24.7623 325.885 25.4078C326.566 26.0516 326.89 26.9735 326.86 28.1753C326.86 30.0801 326.86 31.9918 326.86 33.9095C326.86 35.828 326.86 37.7397 326.86 39.6437Z" fill="#009707"/>
<path d="M356.409 27.3821C356.409 28.3212 356.069 29.0543 355.387 29.5831C354.708 30.1102 353.718 30.3728 352.419 30.3728C351.677 30.3437 350.966 30.3282 350.284 30.3282C349.605 30.3282 348.909 30.3282 348.197 30.3282V39.6437C348.197 41.5785 348.197 43.4979 348.197 45.4019C348.197 47.3067 348.197 49.2261 348.197 51.1601C348.228 52.3619 347.903 53.2855 347.222 53.9311C346.542 54.5749 345.569 54.8959 344.301 54.8959H343.467C340.838 54.8959 339.524 53.6512 339.524 51.1601C339.553 49.2562 339.575 47.3445 339.59 45.4259C339.606 43.5057 339.615 41.5785 339.615 39.6437C339.615 38.0917 339.606 36.5319 339.59 34.9636C339.575 33.3962 339.568 31.851 339.568 30.3282C338.92 30.3282 338.263 30.3282 337.596 30.3282C336.931 30.3282 336.245 30.3437 335.534 30.3728C334.234 30.3728 333.244 30.1102 332.562 29.5831C331.883 29.0543 331.544 28.3212 331.544 27.3821C331.544 25.4207 332.858 24.4395 335.487 24.4395H352.466C355.095 24.4395 356.409 25.4207 356.409 27.3821Z" fill="#009707"/>
<g clip-path="url(#clip0_725_4)">
<path d="M49 40C49 40.3111 48.9917 40.6219 48.9746 40.9322C48.958 41.2429 48.9326 41.5529 48.8989 41.8624C48.8653 42.1719 48.8233 42.4803 48.7725 42.7879C48.7222 43.0954 48.6636 43.4018 48.5966 43.7066C48.5293 44.0118 48.454 44.315 48.3704 44.6166C48.2873 44.9182 48.1954 45.2179 48.0957 45.5155C47.9959 45.8128 47.8883 46.1081 47.7724 46.401C47.6564 46.6935 47.5331 46.9837 47.4014 47.2711C47.2701 47.5584 47.1306 47.8423 46.9836 48.1237C46.837 48.4047 46.6821 48.6822 46.5203 48.9565C46.3584 49.2308 46.1891 49.5012 46.0123 49.768C45.8356 50.0348 45.6518 50.2972 45.4611 50.5557C45.2699 50.8146 45.0721 51.0687 44.8674 51.3185C44.6626 51.5682 44.4513 51.8133 44.233 52.0535C44.0151 52.2938 43.7907 52.5293 43.5601 52.7597C43.3291 52.9901 43.0924 53.2153 42.8492 53.435C42.6064 53.6551 42.3574 53.8692 42.1028 54.0782C41.8482 54.2868 41.5879 54.4899 41.3223 54.687C41.0568 54.8845 40.7859 55.0757 40.5099 55.261C40.2338 55.4462 39.9529 55.6251 39.6668 55.7981C39.3811 55.9707 39.0911 56.1369 38.7962 56.2969C38.5013 56.4568 38.2025 56.61 37.8993 56.7564C37.5961 56.9033 37.2894 57.043 36.9788 57.1756C36.6678 57.3086 36.3541 57.4349 36.0364 57.5536C35.7188 57.6728 35.3981 57.7844 35.0748 57.8893C34.7511 57.9942 34.4247 58.0916 34.0961 58.1818C33.7671 58.2721 33.4359 58.3552 33.1026 58.4304C32.7692 58.506 32.4341 58.5741 32.0968 58.635C31.7599 58.6956 31.4213 58.7486 31.0813 58.7942C30.7414 58.8401 30.4006 58.8781 30.0584 58.9086C29.7163 58.939 29.3738 58.962 29.0303 58.977C28.6873 58.9925 28.3439 59 28 59C27.6561 59 27.3127 58.9925 26.9697 58.977C26.6263 58.962 26.2837 58.939 25.9416 58.9086C25.5994 58.8781 25.2586 58.8401 24.9187 58.7942C24.5788 58.7486 24.2401 58.6956 23.9033 58.635C23.5659 58.5741 23.2308 58.506 22.8974 58.4304C22.5641 58.3552 22.2329 58.2721 21.9039 58.1818C21.5753 58.0916 21.2489 57.9942 20.9252 57.8893C20.6019 57.7844 20.2812 57.6728 19.9636 57.5536C19.6459 57.4349 19.3318 57.3086 19.0212 57.1756C18.7106 57.043 18.4039 56.9033 18.1007 56.7564C17.7975 56.61 17.4987 56.4568 17.2038 56.2969C16.9089 56.1369 16.6189 55.9707 16.3332 55.7981C16.0471 55.6251 15.7662 55.4462 15.4901 55.261C15.2141 55.0757 14.9433 54.8845 14.6777 54.687C14.4121 54.4899 14.1518 54.2868 13.8972 54.0782C13.6426 53.8692 13.3936 53.6551 13.1508 53.435C12.9076 53.2153 12.6709 52.9901 12.4399 52.7597C12.2093 52.5293 11.9849 52.2938 11.7666 52.0535C11.5487 51.8133 11.3374 51.5682 11.1326 51.3185C10.9279 51.0687 10.7301 50.8146 10.5389 50.5557C10.3482 50.2972 10.1644 50.0348 9.98769 49.768C9.81094 49.5012 9.64163 49.2308 9.47975 48.9565C9.31744 48.6822 9.163 48.4047 9.01644 48.1237C8.86944 47.8423 8.72988 47.5584 8.59863 47.2711C8.46694 46.9837 8.34356 46.6935 8.22763 46.401C8.11169 46.1081 8.00406 45.8128 7.90431 45.5155C7.80456 45.2179 7.71269 44.9182 7.62913 44.6166C7.546 44.315 7.47075 44.0118 7.40337 43.7066C7.33644 43.4018 7.27781 43.0954 7.2275 42.7879C7.17675 42.4803 7.13475 42.1719 7.10106 41.8624C7.06737 41.5529 7.042 41.2429 7.02537 40.9322C7.00831 40.6219 7 40.3111 7 40C7 39.6889 7.00831 39.3781 7.02537 39.0678C7.042 38.7571 7.06737 38.4471 7.10106 38.1376C7.13475 37.8281 7.17675 37.5197 7.2275 37.2121C7.27781 36.9046 7.33644 36.5982 7.40337 36.2934C7.47075 35.9882 7.546 35.685 7.62913 35.3834C7.71269 35.0818 7.80456 34.7821 7.90431 34.4845C8.00406 34.1872 8.11169 33.8919 8.22763 33.599C8.34356 33.3065 8.46694 33.0163 8.59863 32.7289C8.72988 32.4416 8.86944 32.1574 9.01644 31.8763C9.163 31.5953 9.31744 31.3178 9.47975 31.0435C9.64163 30.7692 9.81094 30.4988 9.98769 30.232C10.1644 29.9652 10.3482 29.7028 10.5389 29.4443C10.7301 29.1854 10.9279 28.9313 11.1326 28.6815C11.3374 28.4318 11.5487 28.1868 11.7666 27.9465C11.9849 27.7062 12.2093 27.4707 12.4399 27.2403C12.6709 27.0099 12.9076 26.7847 13.1508 26.565C13.3936 26.3449 13.6426 26.1308 13.8972 25.9218C14.1518 25.7132 14.4121 25.5101 14.6777 25.3126C14.9433 25.1155 15.2141 24.9243 15.4901 24.739C15.7662 24.5538 16.0471 24.3749 16.3332 24.2019C16.6189 24.0293 16.9089 23.8631 17.2038 23.7031C17.4987 23.5432 17.7975 23.39 18.1007 23.2436C18.4039 23.0967 18.7106 22.957 19.0212 22.8244C19.3318 22.6914 19.6459 22.5651 19.9636 22.4464C20.2812 22.3272 20.6019 22.2156 20.9252 22.1107C21.2489 22.0058 21.5753 21.9084 21.9039 21.8182C22.2329 21.7279 22.5641 21.6448 22.8974 21.5692C23.2308 21.494 23.5659 21.4259 23.9033 21.365C24.2401 21.3044 24.5788 21.2514 24.9187 21.2058C25.2586 21.1599 25.5994 21.1219 25.9416 21.0914C26.2837 21.061 26.6263 21.038 26.9697 21.023C27.3127 21.0075 27.6561 21 28 21C28.3439 21 28.6873 21.0075 29.0303 21.023C29.3738 21.038 29.7163 21.061 30.0584 21.0914C30.4006 21.1219 30.7414 21.1599 31.0813 21.2058C31.4213 21.2514 31.7599 21.3044 32.0968 21.365C32.4341 21.4259 32.7692 21.494 33.1026 21.5692C33.4359 21.6448 33.7671 21.7279 34.0961 21.8182C34.4247 21.9084 34.7511 22.0058 35.0748 22.1107C35.3981 22.2156 35.7188 22.3272 36.0364 22.4464C36.3541 22.5651 36.6678 22.6914 36.9788 22.8244C37.2894 22.957 37.5961 23.0967 37.8993 23.2436C38.2025 23.39 38.5013 23.5432 38.7962 23.7031C39.0911 23.8631 39.3811 24.0293 39.6668 24.2019C39.9529 24.3749 40.2338 24.5538 40.5099 24.739C40.7859 24.9243 41.0568 25.1155 41.3223 25.3126C41.5879 25.5101 41.8482 25.7132 42.1028 25.9218C42.3574 26.1308 42.6064 26.3449 42.8492 26.565C43.0924 26.7847 43.3291 27.0099 43.5601 27.2403C43.7907 27.4707 44.0151 27.7062 44.233 27.9465C44.4513 28.1868 44.6626 28.4318 44.8674 28.6815C45.0721 28.9313 45.2699 29.1854 45.4611 29.4443C45.6518 29.7028 45.8356 29.9652 46.0123 30.232C46.1891 30.4988 46.3584 30.7692 46.5203 31.0435C46.6821 31.3178 46.837 31.5953 46.9836 31.8763C47.1306 32.1574 47.2701 32.4416 47.4014 32.7289C47.5331 33.0163 47.6564 33.3065 47.7724 33.599C47.8883 33.8919 47.9959 34.1872 48.0957 34.4845C48.1954 34.7821 48.2873 35.0818 48.3704 35.3834C48.454 35.685 48.5293 35.9882 48.5966 36.2934C48.6636 36.5982 48.7222 36.9046 48.7725 37.2121C48.8233 37.5197 48.8653 37.8281 48.8989 38.1376C48.9326 38.4471 48.958 38.7571 48.9746 39.0678C48.9917 39.3781 49 39.6889 49 40Z" fill="#FFEFB7"/>
<mask id="mask0_725_4" style="mask-type:luminance" maskUnits="userSpaceOnUse" x="20" y="23" width="15" height="34">
<path d="M20.776 23.8599H34.888V56.0614H20.776V23.8599Z" fill="white"/>
</mask>
<g mask="url(#mask0_725_4)">
<path d="M27.8333 23.8599C23.9837 23.8599 20.8569 31.0681 20.8569 39.9224C20.8569 48.7768 23.9837 55.9854 27.8333 55.9854C31.6829 55.9854 34.818 48.7768 34.818 39.9224C34.818 31.0681 31.6829 23.8599 27.8333 23.8599Z" fill="#F6D55C"/>
</g>
<path d="M28.7026 25.256C28.7188 25.3514 28.7429 25.4543 28.7595 25.5497C28.9625 25.5497 29.1655 25.5497 29.3685 25.5497C29.1979 25.2117 28.9949 24.8811 28.7512 24.5874C28.6619 24.4845 28.5565 24.3816 28.4506 24.2933C28.5644 24.6021 28.6374 24.9251 28.7026 25.256Z" fill="#F6D55C"/>
<path d="M28.8405 26.0275C28.8811 26.2772 28.9135 26.5199 28.9463 26.7697C28.9949 27.137 29.0356 27.4972 29.0763 27.8645C29.4661 27.8645 29.8476 27.8645 30.2374 27.8645C30.0589 27.2399 29.8476 26.6228 29.5877 26.0275C29.344 26.0275 29.0925 26.0275 28.8405 26.0275Z" fill="#F6D55C"/>
<path d="M29.1331 28.3419C29.1979 28.9665 29.2464 29.5987 29.2954 30.2233C29.799 30.2233 30.3026 30.2233 30.8061 30.2233C30.6841 29.6133 30.5541 29.0109 30.3918 28.4084C30.3835 28.3863 30.3835 28.3641 30.3756 28.3419C29.9613 28.3419 29.547 28.3419 29.1331 28.3419Z" fill="#F6D55C"/>
<path d="M29.3278 30.7007C29.3361 30.789 29.3361 30.8697 29.344 30.958C29.3847 31.6119 29.4254 32.2587 29.4578 32.9126C30.0506 32.9126 30.6434 32.9126 31.2283 32.9126C31.1876 32.567 31.1391 32.2219 31.0901 31.8763C31.0901 31.8985 31.0984 31.9278 31.0984 31.9499C31.0332 31.5311 30.9684 31.1124 30.8954 30.7007C30.3673 30.7007 29.8476 30.7007 29.3278 30.7007Z" fill="#F6D55C"/>
<path d="M29.4739 33.3904C29.5063 34.1397 29.5391 34.889 29.5553 35.6458C30.1967 35.6458 30.8464 35.6458 31.4882 35.6458C31.4313 34.8965 31.3661 34.1397 31.2769 33.3904C30.6841 33.3904 30.0829 33.3904 29.4739 33.3904Z" fill="#F6D55C"/>
<path d="M29.9368 36.1236C29.8152 36.1236 29.6931 36.1236 29.5715 36.1236C29.5715 36.234 29.5794 36.3366 29.5794 36.447C29.596 37.1302 29.6122 37.8138 29.6201 38.497C30.0427 38.497 30.4728 38.497 30.8954 38.497C31.1391 38.497 31.3906 38.497 31.6343 38.497C31.626 38.159 31.6098 37.8209 31.6019 37.4829C31.5858 37.0273 31.5613 36.5792 31.5289 36.1236C31.0008 36.1236 30.4649 36.1236 29.9368 36.1236Z" fill="#F6D55C"/>
<path d="M29.6284 38.9748C29.6363 39.7534 29.6363 40.5324 29.6363 41.3114C29.7828 41.3114 29.9206 41.3114 30.0668 41.3114C30.5948 41.3114 31.1229 41.3114 31.6505 41.3114C31.6667 40.5324 31.6667 39.7534 31.6505 38.9748C30.9763 38.9748 30.3026 38.9748 29.6284 38.9748Z" fill="#F6D55C"/>
<path d="M29.6363 41.7888C29.6363 42.0753 29.6284 42.3619 29.6284 42.656C29.6201 43.1484 29.6122 43.6405 29.6039 44.1258C30.0261 44.1258 30.4566 44.1258 30.8792 44.1258C31.0984 44.1258 31.3176 44.1258 31.5451 44.1258C31.5529 43.9492 31.5696 43.7802 31.5774 43.604C31.6098 43.0012 31.6343 42.3987 31.6505 41.7888C30.9684 41.7888 30.3026 41.7888 29.6363 41.7888Z" fill="#F6D55C"/>
<path d="M29.596 44.6031C29.5794 45.3014 29.5632 45.9921 29.5308 46.69C30.1236 46.69 30.7248 46.69 31.3176 46.69C31.3989 45.9921 31.4558 45.3014 31.5127 44.6031C30.8709 44.6031 30.2295 44.6031 29.596 44.6031Z" fill="#F6D55C"/>
<path d="M29.9613 47.1677C29.8069 47.1677 29.6607 47.1677 29.5063 47.1677C29.4901 47.5351 29.4739 47.9024 29.4577 48.2626C29.4332 48.7036 29.4092 49.1441 29.3847 49.5851C29.8882 49.5851 30.3835 49.5851 30.887 49.5851C30.9684 49.137 31.0494 48.6814 31.1145 48.2258C31.1145 48.248 31.1062 48.2772 31.1062 48.2994C31.1631 47.9246 31.2121 47.5426 31.2607 47.1677C30.8302 47.1677 30.3997 47.1677 29.9613 47.1677Z" fill="#F6D55C"/>
<path d="M29.3602 50.0629C29.3116 50.7168 29.2631 51.3707 29.1979 52.0246C29.5794 52.0246 29.953 52.0246 30.3349 52.0246C30.3756 51.8778 30.4163 51.7234 30.4566 51.569C30.5865 51.0695 30.7003 50.5624 30.8061 50.0554C30.3188 50.0629 29.8397 50.0629 29.3602 50.0629Z" fill="#F6D55C"/>
<path d="M29.141 52.5024C29.1331 52.5463 29.1331 52.5907 29.1248 52.6346C29.0679 53.1048 29.0111 53.5826 28.938 54.0529C29.1572 54.0529 29.3764 54.0529 29.6039 54.0529C29.8397 53.5458 30.0261 53.0312 30.1888 52.5024C29.8397 52.5024 29.4901 52.5024 29.141 52.5024Z" fill="#F6D55C"/>
<path d="M28.8566 54.5303C28.8081 54.8097 28.7429 55.0963 28.6619 55.3683C28.6457 55.4122 28.6374 55.4561 28.6212 55.4929C28.7188 55.4122 28.8081 55.3168 28.8894 55.2285C29.0679 55.008 29.2224 54.7729 29.3602 54.5303C29.1896 54.5303 29.0194 54.5303 28.8566 54.5303Z" fill="#F6D55C"/>
<path d="M27.5979 25.0134C27.5573 25.1899 27.5166 25.3736 27.4842 25.5497C27.7034 25.5497 27.923 25.5497 28.1501 25.5497C28.1177 25.3957 28.0853 25.2485 28.0529 25.0941C27.9878 24.8297 27.923 24.5578 27.8093 24.308C27.7117 24.536 27.6465 24.7711 27.5979 25.0134Z" fill="#F6D55C"/>
<path d="M27.4033 26.0275C27.3949 26.0789 27.3866 26.1229 27.3788 26.1743C27.3788 26.1525 27.3866 26.1229 27.3866 26.1011C27.2974 26.6889 27.2326 27.2767 27.1758 27.8645C27.3464 27.8645 27.5166 27.8645 27.6955 27.8645C27.9554 27.8645 28.2153 27.8645 28.4751 27.8645C28.4183 27.3721 28.3614 26.8872 28.2883 26.4023C28.2883 26.3948 28.2883 26.3802 28.28 26.3726C28.2638 26.2626 28.2476 26.145 28.2231 26.035C27.9554 26.0275 27.6793 26.0275 27.4033 26.0275Z" fill="#F6D55C"/>
<path d="M27.1351 28.3419C27.1189 28.5406 27.1027 28.7389 27.0865 28.9373C27.0537 29.3636 27.0213 29.797 26.9968 30.2233C27.5573 30.2233 28.126 30.2233 28.6865 30.2233C28.6375 29.5987 28.5889 28.9665 28.5237 28.3419C28.0608 28.3419 27.598 28.3419 27.1351 28.3419Z" fill="#F6D55C"/>
<path d="M26.9644 30.7007C26.9238 31.4357 26.8831 32.1779 26.859 32.9126C27.5249 32.9126 28.1829 32.9126 28.8488 32.9126C28.8164 32.1779 28.7674 31.4357 28.7188 30.7007C28.1339 30.7007 27.5494 30.7007 26.9644 30.7007Z" fill="#F6D55C"/>
<path d="M26.8428 33.3904C26.8345 33.5665 26.8345 33.7355 26.8266 33.9121C26.81 34.4924 26.7938 35.0655 26.7776 35.6458C27.4842 35.6458 28.1907 35.6458 28.8894 35.6458C28.9056 35.6458 28.9297 35.6458 28.9542 35.6458C28.9297 34.8965 28.9056 34.1472 28.8728 33.3904C28.1907 33.3904 27.5166 33.3904 26.8428 33.3904Z" fill="#F6D55C"/>
<path d="M26.7697 36.1236C26.7531 36.9172 26.7452 37.7109 26.7452 38.5045C27.5004 38.5045 28.2559 38.5045 29.0111 38.5045C29.0027 37.7109 28.9866 36.9172 28.9625 36.1236C28.2314 36.1236 27.5004 36.1236 26.7697 36.1236Z" fill="#F6D55C"/>
<path d="M26.7452 38.9748C26.7452 39.2907 26.7452 39.6065 26.7452 39.9224C26.7452 40.3855 26.7531 40.8483 26.7531 41.3114C27.5087 41.3114 28.2638 41.3114 29.0194 41.3114C29.0194 40.5324 29.0194 39.7534 29.0111 38.9748C28.2638 38.9748 27.5004 38.9748 26.7452 38.9748Z" fill="#F6D55C"/>
<path d="M26.7614 41.7888C26.7698 42.5678 26.7938 43.3468 26.81 44.1258C27.5332 44.1258 28.2638 44.1258 28.9866 44.1258C29.0028 43.3689 29.0111 42.6121 29.0194 41.8553C29.0194 41.8331 29.0194 41.8109 29.0194 41.7888C28.2721 41.7888 27.5166 41.7888 26.7614 41.7888Z" fill="#F6D55C"/>
<path d="M26.8266 44.6031C26.8507 45.3014 26.8752 45.9921 26.9076 46.69C27.5734 46.69 28.2476 46.69 28.9135 46.69C28.938 45.9921 28.9625 45.3014 28.9787 44.6031C28.2638 44.6031 27.5494 44.6031 26.8266 44.6031Z" fill="#F6D55C"/>
<path d="M26.9321 47.1677C26.9728 47.9467 27.0213 48.7253 27.0782 49.5043C27.0782 49.5336 27.0865 49.5633 27.0865 49.5926C27.6548 49.5926 28.2153 49.5926 28.7757 49.5926C28.8164 48.9312 28.8566 48.2626 28.8811 47.6012C28.8894 47.4614 28.8973 47.3146 28.8973 47.1748C28.2476 47.1677 27.5896 47.1677 26.9321 47.1677Z" fill="#F6D55C"/>
<path d="M27.9961 50.0629C27.7034 50.0629 27.4111 50.0629 27.1189 50.0629C27.1674 50.7168 27.2243 51.3707 27.2974 52.0246C27.7279 52.0246 28.1501 52.0246 28.5806 52.0246C28.6129 51.7012 28.6374 51.3854 28.6698 51.062C28.6943 50.7243 28.7267 50.3934 28.7429 50.0554C28.4996 50.0629 28.2476 50.0629 27.9961 50.0629Z" fill="#F6D55C"/>
<path d="M27.3542 52.5024C27.3949 52.8329 27.4356 53.1638 27.4842 53.4868C27.4842 53.465 27.4763 53.4354 27.4763 53.4136C27.5087 53.6265 27.5411 53.8395 27.5817 54.0529C27.8333 54.0529 28.077 54.0529 28.329 54.0529C28.3531 53.9207 28.3697 53.7956 28.3937 53.6634C28.4506 53.2739 28.4996 52.8919 28.5399 52.5024C28.1422 52.5024 27.7524 52.5024 27.3542 52.5024Z" fill="#F6D55C"/>
<path d="M27.671 54.5303C27.6872 54.5964 27.7034 54.67 27.7196 54.7361C27.7847 55.0005 27.8495 55.2725 27.9632 55.5222C28.0608 55.2946 28.126 55.052 28.1746 54.8169C28.1991 54.7215 28.2152 54.6261 28.2397 54.5303C28.0529 54.5303 27.8578 54.5303 27.671 54.5303Z" fill="#F6D55C"/>
<path d="M26.9482 24.5724C26.6962 24.874 26.5016 25.2045 26.3309 25.5497C26.5099 25.5497 26.6884 25.5497 26.8752 25.5497C26.9321 25.2192 26.9968 24.8887 27.0865 24.5653C27.1027 24.4992 27.1267 24.4331 27.1429 24.3741C27.0699 24.4331 27.013 24.5063 26.9482 24.5724Z" fill="#F6D55C"/>
<path d="M26.1117 26.0275C25.8597 26.6228 25.6567 27.2474 25.4782 27.8645C25.8436 27.8645 26.2093 27.8645 26.5663 27.8645C26.6232 27.2474 26.6962 26.6374 26.7938 26.0275C26.5663 26.0275 26.3392 26.0275 26.1117 26.0275Z" fill="#F6D55C"/>
<path d="M25.3483 28.3419C25.186 28.9665 25.0561 29.5912 24.934 30.2233C25.4131 30.2233 25.9004 30.2233 26.3799 30.2233C26.3961 29.9735 26.4123 29.7163 26.4285 29.4665C26.453 29.0916 26.4854 28.7168 26.5177 28.3419C26.1362 28.3419 25.7464 28.3419 25.3483 28.3419Z" fill="#F6D55C"/>
<path d="M24.8531 30.7007C24.8041 30.9948 24.7555 31.2814 24.7148 31.5751V31.568C24.6501 32.016 24.5932 32.4645 24.5363 32.9126C25.1046 32.9126 25.6734 32.9126 26.25 32.9126C26.2824 32.1779 26.3148 31.4357 26.3554 30.7007C25.8519 30.7007 25.3566 30.7007 24.8531 30.7007Z" fill="#F6D55C"/>
<path d="M24.4873 33.3904C24.4064 34.1397 24.3412 34.889 24.2926 35.6458C24.9178 35.6458 25.543 35.6458 26.1686 35.6458C26.1765 35.2932 26.1848 34.9405 26.1931 34.5878C26.201 34.1912 26.2172 33.787 26.2334 33.3904C25.6489 33.3904 25.0639 33.3904 24.4873 33.3904Z" fill="#F6D55C"/>
<path d="M24.2598 36.1236C24.2196 36.9172 24.1867 37.7109 24.1789 38.5045C24.8286 38.5045 25.4866 38.5045 26.1362 38.5045C26.1362 37.7109 26.1441 36.9172 26.1603 36.1236C25.5268 36.1236 24.8933 36.1236 24.2598 36.1236Z" fill="#F6D55C"/>
<path d="M24.1706 38.9748C24.1706 39.2907 24.1706 39.5994 24.1706 39.9153C24.1706 40.378 24.1789 40.8411 24.1951 41.3114C24.8448 41.3114 25.5028 41.3114 26.1524 41.3114C26.1441 40.8483 26.1441 40.3855 26.1363 39.9224C26.1363 39.6065 26.1363 39.2907 26.1363 38.9748C25.4783 38.9748 24.8286 38.9748 24.1706 38.9748Z" fill="#F6D55C"/>
<path d="M24.2034 41.7888C24.2274 42.5678 24.2681 43.3468 24.325 44.1258C24.9502 44.1258 25.5758 44.1258 26.201 44.1258C26.1765 43.3468 26.1603 42.5678 26.1524 41.7888C25.5027 41.7888 24.8531 41.7888 24.2034 41.7888Z" fill="#F6D55C"/>
<path d="M24.3657 44.6031C24.4226 45.3014 24.4956 45.9993 24.5766 46.69C25.1532 46.69 25.7298 46.69 26.3064 46.69C26.2986 46.4402 26.2824 46.1829 26.2741 45.9331C26.2579 45.4922 26.2417 45.0441 26.2255 44.6031C25.5999 44.6031 24.983 44.6031 24.3657 44.6031Z" fill="#F6D55C"/>
<path d="M24.6334 47.1677C24.6662 47.3953 24.6986 47.6305 24.731 47.8585C24.8202 48.4387 24.9178 49.0119 25.0232 49.5851C25.5027 49.5851 25.9897 49.5851 26.4692 49.5851C26.4123 48.7768 26.3633 47.976 26.323 47.1677C25.7626 47.1677 25.2022 47.1677 24.6334 47.1677Z" fill="#F6D55C"/>
<path d="M25.1208 50.0629C25.2184 50.5109 25.3159 50.9519 25.4376 51.3929C25.4944 51.6058 25.5513 51.8117 25.6165 52.0246C25.9735 52.0246 26.3393 52.0246 26.6963 52.0246C26.656 51.6502 26.6153 51.2753 26.5829 50.9004C26.5584 50.6214 26.5339 50.3419 26.5099 50.0629C26.0466 50.0629 25.5837 50.0629 25.1208 50.0629Z" fill="#F6D55C"/>
<path d="M25.7626 52.5024C25.9249 53.0094 26.1118 53.509 26.3393 54.0014C26.3471 54.016 26.3554 54.0382 26.3633 54.0529C26.453 54.0529 26.5423 54.0529 26.6315 54.0529C26.7453 54.0529 26.859 54.0529 26.9644 54.0529C26.8997 53.6558 26.8428 53.2592 26.7859 52.8551C26.7698 52.7375 26.7531 52.6199 26.7453 52.5024C26.4202 52.5024 26.0873 52.5024 25.7626 52.5024Z" fill="#F6D55C"/>
<path d="M26.607 54.5303C26.7452 54.7654 26.8914 55.0005 27.0699 55.2139C27.1351 55.2871 27.1998 55.3607 27.2729 55.4268C27.1757 55.1331 27.1106 54.8315 27.0458 54.5303C26.9076 54.5303 26.7531 54.5303 26.607 54.5303Z" fill="#F6D55C"/>
<path d="M24.7231 25.5497C25.0399 25.5497 25.3566 25.5497 25.6734 25.5497C25.7867 25.2999 25.9166 25.0577 26.0549 24.8226C26.1603 24.6535 26.2741 24.477 26.404 24.3226C26.4609 24.2565 26.5177 24.1833 26.5746 24.1172C25.9166 24.3962 25.2997 24.8811 24.7231 25.5497Z" fill="#F6D55C"/>
<path d="M24.3333 26.0275C23.9352 26.5567 23.5699 27.1738 23.2203 27.8645C23.7646 27.8645 24.3005 27.8645 24.8447 27.8645C24.9992 27.306 25.1698 26.755 25.3807 26.2187C25.4052 26.1525 25.4297 26.0936 25.4537 26.0275C25.0884 26.0275 24.7148 26.0275 24.3333 26.0275Z" fill="#F6D55C"/>
<path d="M23.0011 28.3419C22.7412 28.9226 22.4976 29.5544 22.2701 30.2233C22.9525 30.2233 23.6346 30.2233 24.3167 30.2233C24.4304 29.5912 24.5604 28.9665 24.7231 28.3419C24.1544 28.3419 23.5777 28.3419 23.0011 28.3419Z" fill="#F6D55C"/>
<path d="M22.1239 30.7007C21.9131 31.3989 21.7179 32.1411 21.5556 32.9126C22.3436 32.9126 23.1394 32.9126 23.9269 32.9126C23.9352 32.839 23.9431 32.7582 23.9514 32.6846C24.0328 32.0236 24.122 31.3621 24.2358 30.7007C23.5371 30.7007 22.8305 30.7007 22.1239 30.7007Z" fill="#F6D55C"/>
<path d="M21.4581 33.3904C21.3203 34.1175 21.1982 34.8672 21.1089 35.6458C21.9699 35.6458 22.8305 35.6458 23.6832 35.6458C23.7322 34.8965 23.7969 34.1397 23.8783 33.3904C23.0663 33.3904 22.2622 33.3904 21.4581 33.3904Z" fill="#F6D55C"/>
<path d="M21.0521 36.1236C20.9707 36.8951 20.9138 37.6887 20.8814 38.5045C21.7748 38.5045 22.6765 38.5045 23.5699 38.5045C23.5861 37.7109 23.6101 36.9172 23.6508 36.1236C22.7898 36.1236 21.9209 36.1236 21.0521 36.1236Z" fill="#F6D55C"/>
<path d="M20.8652 38.9748C20.8569 39.2907 20.8569 39.6065 20.8569 39.9224C20.8569 40.3927 20.8652 40.8558 20.8814 41.3114C21.7831 41.3114 22.6844 41.3114 23.5861 41.3114C23.5699 40.8483 23.5699 40.3855 23.5616 39.9153C23.5616 39.5994 23.5616 39.2907 23.5616 38.9748C22.6682 38.9748 21.7669 38.9748 20.8652 38.9748Z" fill="#F6D55C"/>
<path d="M20.8976 41.7888C20.9383 42.5899 21.0035 43.3689 21.0927 44.1258C21.9699 44.1258 22.8388 44.1258 23.716 44.1258C23.6591 43.3468 23.6184 42.5678 23.5939 41.7888C22.7006 41.7888 21.7993 41.7888 20.8976 41.7888Z" fill="#F6D55C"/>
<path d="M21.1575 44.6031C21.2551 45.3232 21.3688 46.0214 21.5066 46.69C22.3269 46.69 23.1473 46.69 23.9676 46.69C23.9352 46.4109 23.9028 46.1315 23.8783 45.8524C23.8376 45.4336 23.7969 45.0148 23.7646 44.6031C22.8874 44.6031 22.0268 44.6031 21.1575 44.6031Z" fill="#F6D55C"/>
<path d="M21.6042 47.1677C21.791 48.02 22.0102 48.8282 22.2622 49.5851C22.9766 49.5851 23.6998 49.5851 24.4142 49.5851C24.2598 48.7843 24.1299 47.976 24.0327 47.1677C23.2203 47.1677 22.4166 47.1677 21.6042 47.1677Z" fill="#F6D55C"/>
<path d="M22.4245 50.0629C22.6765 50.7682 22.9526 51.4297 23.2531 52.0246C23.8297 52.0246 24.4064 52.0246 24.983 52.0246C24.8692 51.628 24.7717 51.2238 24.6741 50.8268C24.6172 50.5699 24.5604 50.3202 24.5035 50.0629C23.8131 50.0629 23.1232 50.0629 22.4245 50.0629Z" fill="#F6D55C"/>
<path d="M23.4968 52.5024C23.8131 53.0827 24.1544 53.6044 24.5118 54.0529C24.91 54.0529 25.3076 54.0529 25.6975 54.0529C25.47 53.5458 25.2831 53.0312 25.113 52.5024C24.5849 52.5024 24.0406 52.5024 23.4968 52.5024Z" fill="#F6D55C"/>
<path d="M24.934 54.5303C25.5351 55.1695 26.1931 55.618 26.8669 55.831C26.7531 55.7281 26.656 55.618 26.5584 55.5076C26.3064 55.2064 26.1034 54.8758 25.9332 54.5303C25.5999 54.5303 25.2669 54.5303 24.934 54.5303Z" fill="#F6D55C"/>
<path d="M29.4416 24.5138C29.6769 24.8372 29.8638 25.1899 30.0344 25.5426C30.3428 25.5426 30.6434 25.5426 30.9523 25.5426C30.3835 24.8887 29.7745 24.4034 29.1248 24.1243C29.2386 24.2565 29.344 24.3816 29.4416 24.5138Z" fill="#F6D55C"/>
<path d="M31.1714 26.0275C30.863 26.0275 30.5541 26.0275 30.2457 26.0275C30.4404 26.4902 30.6027 26.968 30.7493 27.4457C30.7895 27.5851 30.8302 27.7248 30.8709 27.8717C31.3989 27.8717 31.9187 27.8717 32.4463 27.8717C32.1055 27.1809 31.7319 26.5638 31.3338 26.035C31.2852 26.0275 31.2283 26.0275 31.1714 26.0275Z" fill="#F6D55C"/>
<path d="M31.0008 28.3419C31.1631 28.9665 31.3014 29.5912 31.423 30.2233C32.081 30.2233 32.739 30.2233 33.4049 30.2233C33.1857 29.5544 32.942 28.9226 32.6738 28.3419C32.1134 28.3419 31.5613 28.3419 31.0008 28.3419Z" fill="#F6D55C"/>
<path d="M31.5044 30.7007C31.5774 31.1124 31.6426 31.5165 31.6995 31.9278C31.7481 32.2512 31.7887 32.5821 31.8294 32.9126C32.5929 32.9126 33.348 32.9126 34.1114 32.9126C33.9491 32.1411 33.754 31.3989 33.5427 30.7007C32.8689 30.7007 32.1864 30.7007 31.5044 30.7007Z" fill="#F6D55C"/>
<path d="M31.8942 33.3904C31.9834 34.1397 32.0486 34.889 32.1055 35.6458C32.9258 35.6458 33.7461 35.6458 34.566 35.6458C34.4768 34.8672 34.3551 34.1175 34.2169 33.3904C33.4373 33.3904 32.6659 33.3904 31.8942 33.3904Z" fill="#F6D55C"/>
<path d="M32.1379 36.1236C32.1703 36.5938 32.1948 37.0716 32.2109 37.5419C32.2271 37.8577 32.2354 38.1811 32.2433 38.497C33.0881 38.497 33.9408 38.497 34.7856 38.497C34.7528 37.6887 34.6959 36.8951 34.615 36.1165C33.7947 36.1236 32.9661 36.1236 32.1379 36.1236Z" fill="#F6D55C"/>
<path d="M32.2595 38.9748C32.2761 39.7534 32.2761 40.5324 32.2595 41.3114C33.1043 41.3114 33.9491 41.3114 34.7935 41.3114C34.8097 40.8558 34.818 40.3927 34.818 39.9224C34.818 39.6065 34.818 39.2907 34.8097 38.9748C33.957 38.9748 33.1043 38.9748 32.2595 38.9748Z" fill="#F6D55C"/>
<path d="M32.2516 41.7888C32.2354 42.4134 32.2109 43.038 32.1786 43.6626C32.1702 43.817 32.1624 43.9714 32.1541 44.1258C32.9661 44.1258 33.7702 44.1258 34.5826 44.1258C34.6719 43.3689 34.7366 42.5899 34.7773 41.7888C33.9325 41.7888 33.0881 41.7888 32.2516 41.7888Z" fill="#F6D55C"/>
<path d="M32.1134 44.6031C32.0648 45.3014 31.9996 45.9993 31.9266 46.69C32.6738 46.69 33.4211 46.69 34.1683 46.69C34.3061 46.0214 34.4199 45.3232 34.5174 44.6031C33.7133 44.6031 32.9175 44.6031 32.1134 44.6031Z" fill="#F6D55C"/>
<path d="M31.8697 47.1677C31.7887 47.7995 31.6995 48.4316 31.5936 49.0634C31.5612 49.2399 31.5367 49.4089 31.5044 49.5851C32.1379 49.5851 32.7714 49.5851 33.4127 49.5851C33.6647 48.8282 33.8839 48.02 34.0707 47.1677C33.3318 47.1677 32.6007 47.1677 31.8697 47.1677Z" fill="#F6D55C"/>
<path d="M31.4151 50.0629C31.3337 50.4817 31.2445 50.9004 31.1391 51.3121C31.0822 51.5472 31.017 51.7895 30.9522 52.0246C31.4396 52.0246 31.9266 52.0246 32.4139 52.0246C32.7145 51.4222 32.9906 50.7682 33.2426 50.0629C32.6331 50.0629 32.0241 50.0629 31.4151 50.0629Z" fill="#F6D55C"/>
<path d="M30.814 52.5024C30.7409 52.7375 30.6679 52.9651 30.5865 53.1931C30.4811 53.4797 30.3756 53.7663 30.2536 54.0529C30.5541 54.0529 30.8547 54.0529 31.1553 54.0529C31.5127 53.6044 31.8535 53.0827 32.1703 52.5024C31.7236 52.5024 31.269 52.5024 30.814 52.5024Z" fill="#F6D55C"/>
<path d="M30.0261 54.5303C30.002 54.5893 29.9696 54.6407 29.9368 54.6993C29.7583 55.0227 29.5553 55.3461 29.3033 55.6327C29.799 55.3829 30.2781 55.0156 30.7326 54.5378C30.5056 54.5303 30.2698 54.5303 30.0261 54.5303Z" fill="#F6D55C"/>
<mask id="mask1_725_4" style="mask-type:luminance" maskUnits="userSpaceOnUse" x="27" y="31" width="12" height="26">
<path d="M27.272 31.4373H38.9095V56.1599H27.272V31.4373Z" fill="white"/>
</mask>
<g mask="url(#mask1_725_4)">
<path d="M38.2454 31.4722H38.2292C38.1071 31.4722 37.9689 31.4872 37.8228 31.5019C37.8066 31.5019 37.7904 31.509 37.7742 31.509H37.7418L37.709 31.5165L37.6766 31.5236C37.5388 31.5458 37.4006 31.5826 37.2544 31.6265L37.2383 31.6341C37.1162 31.6709 36.9863 31.7223 36.8563 31.7738C36.8078 31.7956 36.7509 31.8177 36.7023 31.8399L36.6857 31.847L36.6695 31.8545C36.5886 31.8914 36.5072 31.9353 36.4258 31.9721C36.3689 32.0014 36.3204 32.0307 36.2718 32.0604L36.2635 32.0675L36.2556 32.075L36.2473 32.0821L36.239 32.0897C36.0605 32.1926 35.882 32.3101 35.6952 32.4495C35.3054 32.7361 34.9234 33.0741 34.5336 33.4782C34.2252 33.7945 33.9325 34.1397 33.6241 34.5292C33.0068 35.3082 32.4301 36.1972 31.8618 37.2331L31.8128 37.3139L31.8049 37.3285L31.7888 37.3582C31.1063 38.6075 30.4973 39.9521 29.9289 41.4804C29.4009 42.8836 28.9463 44.3827 28.5565 45.9407C28.4099 46.521 28.28 47.1088 28.1663 47.6895C28.1177 47.9099 28.077 48.1597 28.0284 48.417V48.4756L28.0201 48.4978L28.0123 48.5199V48.527C27.9471 48.8651 27.8902 49.2178 27.8333 49.578C27.5087 51.6502 27.3543 53.6559 27.3866 55.5297C27.3866 55.5373 27.3866 55.5519 27.3866 55.559C27.3866 55.5665 27.3866 55.5665 27.3866 55.5737C27.3866 55.6034 27.3866 55.6398 27.3866 55.6695C27.3949 55.7356 27.3949 55.7941 27.4033 55.8603V55.9046C27.4033 55.9632 27.4033 56.0221 27.4033 56.0807C27.4356 56.0883 27.4597 56.0883 27.4842 56.0954C27.5166 56.1029 27.5411 56.1029 27.5734 56.1104C27.6303 56.1175 27.6955 56.1251 27.7524 56.1322C27.7848 56.1322 27.8171 56.1322 27.8495 56.1322C27.9064 56.1322 27.9633 56.1322 28.0284 56.1322C28.077 56.1322 28.1177 56.1322 28.1663 56.1322C28.3452 56.1251 28.532 56.1029 28.7267 56.059H28.735C29.3033 55.9264 29.8638 55.6695 30.4487 55.2578C30.9846 54.8829 31.5044 54.4127 32.0403 53.8178C32.5194 53.2885 32.9744 52.6936 33.4373 51.9953C33.8433 51.3929 34.2252 50.739 34.6229 49.9968C35.3133 48.6961 35.9227 47.3075 36.491 45.7424C37.0024 44.3241 37.4574 42.8029 37.8228 41.2306C38.1885 39.6948 38.4646 38.1222 38.6514 36.5646C38.7892 35.4036 38.8706 34.2719 38.8951 33.177C38.8951 33.067 38.9029 32.9565 38.9029 32.8536V32.8022V32.795C38.9029 32.7875 38.9029 32.7729 38.9029 32.7657V32.5599C38.9029 32.4348 38.9029 32.3101 38.9029 32.1851C38.9029 32.1043 38.9029 32.016 38.9029 31.9353V31.906C38.8951 31.8399 38.8868 31.7663 38.8868 31.6926V31.6341C38.8868 31.5972 38.8868 31.5604 38.8868 31.5236C38.8789 31.5236 38.8789 31.5236 38.8789 31.5165C38.7323 31.4872 38.57 31.465 38.4156 31.4575C38.3915 31.4575 38.3591 31.4575 38.3346 31.4575C38.2939 31.4722 38.2694 31.4722 38.2454 31.4722Z" fill="#7ED957"/>
</g>
<path d="M34.8665 40.0253C34.8665 40.1136 34.9479 40.1944 35.0534 40.1944C35.1592 40.1944 35.2402 40.1211 35.2402 40.0253C35.2402 39.9299 35.1592 39.8563 35.0534 39.8563C34.9479 39.8563 34.8665 39.9299 34.8665 40.0253Z" fill="#7ED957"/>
<mask id="mask2_725_4" style="mask-type:luminance" maskUnits="userSpaceOnUse" x="27" y="31" width="12" height="26">
<path d="M27.272 31.4373H38.808V56.1599H27.272V31.4373Z" fill="white"/>
</mask>
<g mask="url(#mask2_725_4)">
<path d="M38.2292 31.4722C38.1071 31.4722 37.9689 31.4872 37.8228 31.5019C37.8066 31.5019 37.7904 31.509 37.7742 31.509H37.7418L37.709 31.5165L37.6766 31.5236C37.5388 31.5458 37.4006 31.5826 37.2544 31.6265L37.2383 31.6341C37.1162 31.6709 36.9863 31.7223 36.8563 31.7738C36.8078 31.7956 36.7509 31.8177 36.7023 31.8399L36.6857 31.847L36.6695 31.8545C36.5886 31.8914 36.5072 31.9353 36.4258 31.9721C36.3689 32.0014 36.3204 32.0307 36.2718 32.0604L36.2635 32.0675L36.2556 32.075L36.2473 32.0821L36.239 32.0897C36.0605 32.1926 35.882 32.3101 35.6952 32.4495C35.3054 32.7361 34.9234 33.0741 34.5336 33.4783C34.2252 33.7945 33.9325 34.1397 33.6241 34.5292C33.0068 35.3082 32.4301 36.1972 31.8618 37.2331L31.8128 37.3139L31.8049 37.3285L31.7888 37.3582C31.1063 38.6075 30.4973 39.9521 29.9289 41.4804C29.4009 42.8836 28.9463 44.3827 28.5565 45.9407C28.4099 46.521 28.28 47.1088 28.1663 47.6895C28.1177 47.9099 28.077 48.1597 28.0284 48.417V48.4756L28.0201 48.4978L28.0123 48.5199V48.527C27.9471 48.8651 27.8902 49.2178 27.8333 49.578C27.5087 51.6502 27.3543 53.6487 27.3866 55.5297C27.3866 55.5373 27.3866 55.5519 27.3866 55.559C27.3866 55.5665 27.3866 55.5665 27.3866 55.5737C27.3866 55.6034 27.3866 55.6398 27.3866 55.6695C27.3949 55.7356 27.3949 55.7941 27.4033 55.8603V55.9046C27.4033 55.9632 27.4033 56.0221 27.4033 56.0807C27.4356 56.0883 27.4597 56.0883 27.4925 56.0954C27.5249 56.1029 27.5494 56.1029 27.5818 56.1104C27.6386 56.1175 27.7034 56.1251 27.7603 56.1322C27.7931 56.1322 27.8254 56.1322 27.8578 56.1322C27.9147 56.1322 27.9716 56.1397 28.0363 56.1397C28.0853 56.1397 28.126 56.1397 28.1746 56.1397C28.2153 56.1397 28.2638 56.1322 28.3045 56.1322C28.3045 56.0368 28.3128 55.9485 28.3128 55.8531C28.3938 54.0968 28.5968 52.3409 28.8894 50.6068C29.2141 48.7182 29.6529 46.8372 30.205 44.9926C30.7493 43.1853 31.3989 41.3997 32.2026 39.6655C32.5929 38.8204 33.0068 37.99 33.4779 37.1817C33.9491 36.3663 34.4527 35.5651 35.0293 34.8083C35.5893 34.0661 36.1988 33.3536 36.9132 32.7214C37.4574 32.244 38.0664 31.8031 38.7406 31.5019C38.6352 31.4872 38.5293 31.4722 38.4239 31.4722C38.3994 31.4722 38.367 31.4722 38.3425 31.4722C38.3184 31.4722 38.3023 31.4722 38.2778 31.4722H38.2292Z" fill="#7ED957"/>
</g>
<mask id="mask3_725_4" style="mask-type:luminance" maskUnits="userSpaceOnUse" x="28" y="31" width="11" height="26">
<path d="M28.728 31.944H38.9095V56.0613H28.728V31.944Z" fill="white"/>
</mask>
<g mask="url(#mask3_725_4)">
<path d="M38.0017 32.4791C37.2706 33.0008 36.6454 33.6179 36.0767 34.2794C35.3784 35.0948 34.7773 35.9767 34.2252 36.8804C33.6809 37.7841 33.1857 38.7174 32.7469 39.6726C32.5929 40.0106 32.4384 40.3411 32.2923 40.6867C31.5451 42.4355 30.9277 44.2358 30.4163 46.0582C29.9044 47.9024 29.5063 49.7687 29.2224 51.6501C29.0027 53.1048 28.8566 54.5745 28.7997 56.0439C28.8487 56.0292 28.8973 56.0221 28.9463 56.0074C28.9542 55.9192 28.9704 55.8309 28.9787 55.7426C29.0924 54.964 29.2547 54.1921 29.4416 53.4207C29.8314 51.797 30.3266 50.1875 30.863 48.5931C31.4151 46.9547 32.0162 45.3306 32.6659 43.7216C33.2426 42.3033 33.8432 40.8925 34.4929 39.4964C34.5012 39.4743 34.5091 39.4596 34.5174 39.445C34.5905 39.2831 34.6636 39.1216 34.7449 38.9672C35.4594 37.4682 36.2149 35.9838 37.0838 34.5513C37.4819 33.8899 37.9041 33.2359 38.3915 32.626C38.5293 32.4569 38.6676 32.2879 38.8137 32.1335C38.8382 32.1114 38.8544 32.0896 38.8789 32.0674C38.8789 32.0382 38.8789 32.0013 38.8789 31.972C38.57 32.1114 38.2777 32.2879 38.0017 32.4791Z" fill="#7ED957"/>
</g>
<mask id="mask4_725_4" style="mask-type:luminance" maskUnits="userSpaceOnUse" x="29" y="32" width="10" height="24">
<path d="M29.4 32.7546H38.9095V55.8586H29.4V32.7546Z" fill="white"/>
</mask>
<g mask="url(#mask4_725_4)">
<path d="M38.1802 33.7869C37.8879 34.2204 37.6119 34.6689 37.352 35.1169C36.8239 36.0206 36.3287 36.9394 35.8658 37.8723C35.6707 38.2543 35.4839 38.6367 35.2971 39.0262C35.1995 39.2316 35.1024 39.445 35.0048 39.6508C35.0048 39.6579 34.9965 39.6579 34.9965 39.6655C34.9965 39.6726 34.9886 39.6801 34.9886 39.6801C34.9073 39.8563 34.818 40.0399 34.7366 40.2236C34.5581 40.6131 34.3875 41.0026 34.2169 41.3921C33.5186 42.994 32.8606 44.6177 32.2516 46.2565C31.6588 47.8509 31.1063 49.4675 30.6272 51.0916C30.3918 51.8924 30.1643 52.7007 29.9696 53.5165C29.7907 54.2587 29.6284 55.008 29.5146 55.7648C29.5146 55.7794 29.5063 55.7941 29.5063 55.8087C29.5146 55.8016 29.5308 55.8016 29.5391 55.7941C29.9206 55.3238 30.2536 54.8314 30.5786 54.3248C30.9523 53.7441 31.2931 53.1487 31.626 52.5463C32.284 51.356 32.8851 50.1436 33.4534 48.924C34.5091 46.6606 35.4594 44.3533 36.3125 42.0238C36.8401 40.5767 37.3358 39.1216 37.7742 37.6519C38.2047 36.2189 38.5945 34.7714 38.8461 33.3092C38.8461 33.2874 38.8623 33.2652 38.8706 33.2506C38.8706 33.2431 38.8706 33.2284 38.8706 33.2213C38.8706 33.1109 38.8789 33.0008 38.8789 32.8979V32.8243C38.6352 33.133 38.3994 33.4564 38.1802 33.7869Z" fill="#7ED957"/>
</g>
<path d="M38.5945 36.6746C38.2939 37.7549 37.961 38.8351 37.6036 39.9007C37.1162 41.3554 36.5886 42.8029 36.0198 44.2358C35.4515 45.6763 34.8504 47.1017 34.2007 48.5124C33.5672 49.8939 32.9013 51.2678 32.1703 52.6125C31.8049 53.2814 31.423 53.95 31.0091 54.5964C30.9033 54.7583 30.8061 54.9126 30.7003 55.0741C31.1391 54.7361 31.5774 54.3248 32.0241 53.8324C32.5032 53.3032 32.9582 52.7083 33.4211 52.01C33.8271 51.4075 34.209 50.7536 34.6067 50.0114C35.2971 48.7107 35.9061 47.3221 36.4748 45.757C36.9863 44.3387 37.4413 42.8176 37.8066 41.2453C38.1723 39.7095 38.4484 38.1368 38.6352 36.5792C38.6352 36.5571 38.6431 36.5353 38.6431 36.5131C38.6269 36.5646 38.6107 36.616 38.5945 36.6746Z" fill="#7ED957"/>
<path d="M36.0443 34.3159C36.0529 34.3085 36.0611 34.294 36.0696 34.2866C36.0611 34.294 36.0529 34.301 36.0443 34.3159Z" fill="#7ED957"/>
<mask id="mask5_725_4" style="mask-type:luminance" maskUnits="userSpaceOnUse" x="17" y="31" width="12" height="26">
<path d="M17.08 31.336H28.728V56.1599H17.08V31.336Z" fill="white"/>
</mask>
<g mask="url(#mask5_725_4)">
<path d="M17.7546 31.4357H17.7708C17.8929 31.4357 18.0307 31.4504 18.1768 31.465C18.1934 31.465 18.2096 31.4722 18.2258 31.4722H18.2582L18.2905 31.4797L18.3234 31.4872C18.4612 31.509 18.5994 31.5458 18.7455 31.5897L18.7617 31.5972C18.8838 31.6341 19.0137 31.6855 19.1437 31.737C19.1922 31.7587 19.2491 31.7809 19.2977 31.8031L19.3139 31.8102L19.33 31.8177C19.4114 31.8545 19.4928 31.8985 19.5737 31.9353C19.6306 31.9646 19.6796 31.9939 19.7282 32.0236L19.7365 32.0307L19.7444 32.0382L19.7527 32.0453L19.7605 32.0528C19.9395 32.1558 20.118 32.2733 20.3048 32.4131C20.6946 32.6996 21.0765 33.0373 21.4664 33.4414C21.7748 33.7577 22.067 34.1029 22.3759 34.4924C22.9932 35.2714 23.5699 36.1604 24.1382 37.1963L24.1867 37.2775L24.195 37.2921L24.2112 37.3214C24.8933 38.5706 25.5027 39.9153 26.071 41.4436C26.5991 42.8472 27.0537 44.3462 27.4435 45.9038C27.5896 46.4841 27.7195 47.0723 27.8333 47.6526C27.8823 47.8731 27.923 48.1229 27.9715 48.3802V48.4388L27.9799 48.4609L27.9877 48.4831V48.4902C28.0529 48.8283 28.1098 49.181 28.1662 49.5412C28.4913 51.6133 28.6457 53.6194 28.6129 55.4929C28.6129 55.5004 28.6129 55.5151 28.6129 55.5222C28.6129 55.5297 28.6129 55.5297 28.6129 55.5372C28.6129 55.5665 28.6129 55.6033 28.6129 55.6326C28.605 55.6987 28.605 55.7573 28.5967 55.8238V55.8678C28.5967 55.9263 28.5967 55.9853 28.5967 56.0439C28.5644 56.0514 28.5399 56.0514 28.5158 56.059C28.483 56.0661 28.4589 56.0661 28.4261 56.0736C28.3697 56.0807 28.3045 56.0882 28.2476 56.0954C28.2152 56.0954 28.1829 56.0954 28.15 56.0954C28.0932 56.0954 28.0363 56.0954 27.9715 56.0954C27.923 56.0954 27.8823 56.0954 27.8333 56.0954C27.6548 56.0882 27.468 56.0661 27.2729 56.0221H27.265C26.6962 55.8899 26.1362 55.6326 25.5513 55.221C25.0154 54.8465 24.4956 54.3763 23.9597 53.7809C23.4802 53.2517 23.0256 52.6568 22.5627 51.9585C22.1567 51.3561 21.7748 50.7021 21.3767 49.96C20.6867 48.6592 20.0773 47.2707 19.509 45.7055C18.9971 44.2873 18.5425 42.7661 18.1768 41.1938C17.8115 39.658 17.5354 38.0857 17.3486 36.5277C17.2104 35.3668 17.1294 34.2351 17.1049 33.1402C17.1049 33.0302 17.097 32.9197 17.097 32.8172V32.7657V32.7582C17.097 32.7511 17.097 32.7361 17.097 32.7289V32.5306C17.097 32.4055 17.097 32.2805 17.097 32.1558C17.097 32.075 17.097 31.9867 17.097 31.906V31.8763C17.1049 31.8102 17.1132 31.737 17.1132 31.6633V31.6048C17.1132 31.568 17.1132 31.5311 17.1132 31.4943C17.1211 31.4943 17.1211 31.4943 17.1211 31.4872C17.2672 31.4575 17.43 31.4357 17.584 31.4282C17.6085 31.4282 17.6409 31.4282 17.6654 31.4282C17.7139 31.4357 17.7305 31.4357 17.7546 31.4357Z" fill="#7ED957"/>
</g>
<path d="M21.1335 39.9814C21.1335 40.0697 21.0521 40.1504 20.9466 40.1504C20.8408 40.1504 20.7598 40.0768 20.7598 39.9814C20.7598 39.886 20.8408 39.8124 20.9466 39.8124C21.0521 39.8124 21.1335 39.8931 21.1335 39.9814Z" fill="#7ED957"/>
<mask id="mask6_725_4" style="mask-type:luminance" maskUnits="userSpaceOnUse" x="17" y="31" width="12" height="26">
<path d="M17.192 31.336H28.728V56.1599H17.192V31.336Z" fill="white"/>
</mask>
<g mask="url(#mask6_725_4)">
<path d="M17.7708 31.4357C17.8929 31.4357 18.0307 31.4504 18.1768 31.465C18.1934 31.465 18.2096 31.4721 18.2258 31.4721H18.2582L18.2906 31.4797L18.3234 31.4872C18.4612 31.509 18.5994 31.5458 18.7456 31.5897L18.7617 31.5972C18.8838 31.634 19.0137 31.6855 19.1437 31.737C19.1922 31.7587 19.2491 31.7809 19.2977 31.8031L19.3139 31.8102L19.3301 31.8177C19.4114 31.8545 19.4928 31.8985 19.5737 31.9353C19.6306 31.9646 19.6796 31.9939 19.7282 32.0235L19.7365 32.0307L19.7444 32.0382L19.7527 32.0453L19.7606 32.0528C19.9395 32.1558 20.118 32.2733 20.3048 32.413C20.6946 32.6996 21.0766 33.0373 21.4664 33.4414C21.7748 33.7577 22.0671 34.1029 22.3759 34.4924C22.9932 35.2714 23.5699 36.1604 24.1382 37.1963L24.1867 37.2774L24.1951 37.2921L24.2112 37.3214C24.8933 38.5706 25.5027 39.9153 26.0711 41.4436C26.5991 42.8472 27.0537 44.3462 27.4435 45.9038C27.5896 46.4841 27.7196 47.0723 27.8333 47.6526C27.8823 47.8731 27.923 48.1229 27.9716 48.3802V48.4388L27.9799 48.4609L27.9877 48.4831V48.4902C28.0529 48.8283 28.1098 49.1809 28.1662 49.5411C28.4913 51.6133 28.6457 53.6119 28.6129 55.4929C28.6129 55.5004 28.6129 55.5151 28.6129 55.5222C28.6129 55.5297 28.6129 55.5297 28.6129 55.5372C28.6129 55.5665 28.6129 55.6033 28.6129 55.6326C28.6051 55.6987 28.6051 55.7573 28.5967 55.8238V55.8678C28.5967 55.9263 28.5967 55.9853 28.5967 56.0439C28.5644 56.0514 28.5399 56.0514 28.5075 56.0589C28.4751 56.0661 28.4506 56.0661 28.4182 56.0736C28.3614 56.0807 28.2962 56.0882 28.2397 56.0954C28.2069 56.0954 28.1746 56.0954 28.1422 56.0954C28.0853 56.0954 28.0284 56.1029 27.9632 56.1029C27.9147 56.1029 27.874 56.1029 27.8254 56.1029C27.7847 56.1029 27.7362 56.0954 27.6955 56.0954C27.6955 56 27.6872 55.9117 27.6872 55.8163C27.6062 54.06 27.4032 52.3041 27.1106 50.5699C26.7859 48.6814 26.3471 46.8004 25.795 44.9558C25.2507 43.1484 24.6011 41.3628 23.7969 39.6287C23.4071 38.7836 22.9932 37.9531 22.5221 37.1448C22.0509 36.3294 21.5473 35.5283 20.9707 34.7714C20.4102 34.0296 19.8012 33.3167 19.0868 32.6846C18.5426 32.2072 17.9336 31.7663 17.2594 31.465C17.3648 31.4504 17.4702 31.4357 17.5761 31.4357C17.6002 31.4357 17.633 31.4357 17.6571 31.4357C17.6816 31.4357 17.6977 31.4357 17.7222 31.4357H17.7708Z" fill="#7ED957"/>
</g>
<path d="M18.0066 32.4349C18.7372 32.9566 19.3629 33.5741 19.9312 34.2351C20.6299 35.0509 21.2306 35.9324 21.7831 36.8365C22.3269 37.7402 22.8226 38.6736 23.261 39.6287C23.4154 39.9668 23.5699 40.2973 23.716 40.6429C24.4632 42.3916 25.0801 44.1919 25.592 46.0139C26.1034 47.8585 26.5016 49.7249 26.7859 51.6059C27.0051 53.0609 27.1512 54.5303 27.2081 56C27.1596 55.9854 27.1106 55.9778 27.062 55.9632C27.0537 55.8749 27.0375 55.787 27.0296 55.6988C26.9159 54.9198 26.7531 54.1483 26.5663 53.3768C26.1765 51.7527 25.6812 50.1436 25.1453 48.5492C24.5932 46.9105 23.9921 45.2868 23.3424 43.6773C22.7657 42.2594 22.1646 40.8483 21.5149 39.4522C21.5066 39.4304 21.4987 39.4154 21.4904 39.4007C21.4174 39.2392 21.3443 39.0777 21.2634 38.9234C20.5485 37.4243 19.7934 35.94 18.9241 34.507C18.5264 33.8456 18.1037 33.1917 17.6168 32.5821C17.4786 32.4131 17.3403 32.2441 17.1942 32.0897C17.1701 32.0675 17.1535 32.0454 17.1294 32.0236C17.1294 31.9939 17.1294 31.9575 17.1294 31.9278C17.43 32.0675 17.7222 32.2441 18.0066 32.4349Z" fill="#7ED957" fill-opacity="0.9"/>
<path d="M17.8198 33.7431C18.1121 34.1765 18.3881 34.6246 18.648 35.0731C19.1761 35.9768 19.6713 36.8951 20.1342 37.8285C20.3293 38.2104 20.5161 38.5924 20.7029 38.9819C20.8001 39.1878 20.8976 39.4007 20.9952 39.6065C20.9952 39.6141 21.0035 39.6141 21.0035 39.6212C21.0035 39.6287 21.0114 39.6358 21.0114 39.6358C21.0927 39.8124 21.182 39.996 21.2634 40.1797C21.4419 40.5692 21.6125 40.9587 21.7831 41.3482C22.4814 42.9498 23.1394 44.5739 23.7484 46.2126C24.3412 47.807 24.8933 49.4236 25.3728 51.0473C25.6082 51.8485 25.8357 52.6568 26.0304 53.4722C26.2093 54.2144 26.3716 54.9641 26.4854 55.7209C26.4854 55.7356 26.4933 55.7502 26.4933 55.7649C26.4854 55.7573 26.4692 55.7573 26.4609 55.7502C26.0794 55.28 25.7464 54.7875 25.4214 54.2805C25.0478 53.7002 24.7065 53.1049 24.3736 52.5024C23.716 51.3121 23.1149 50.0997 22.5466 48.8797C21.4904 46.6168 20.5402 44.3094 19.6875 41.98C19.1599 40.5324 18.6642 39.0777 18.2258 37.608C17.7953 36.1751 17.4055 34.7275 17.1535 33.2653C17.1535 33.2431 17.1373 33.2214 17.1294 33.2063C17.1294 33.1992 17.1294 33.1845 17.1294 33.177C17.1294 33.067 17.1211 32.9565 17.1211 32.8536V32.8097C17.3648 33.0888 17.6002 33.4197 17.8198 33.7431Z" fill="#7ED957"/>
<path d="M17.4055 36.6307C17.7061 37.7109 18.039 38.7911 18.3964 39.8563C18.8838 41.3114 19.4114 42.759 19.9802 44.1919C20.5485 45.6319 21.1496 47.0573 21.7993 48.4685C22.4328 49.8499 23.0987 51.2239 23.8297 52.5685C24.1951 53.2371 24.5766 53.906 24.9909 54.5524C25.0967 54.7139 25.1939 54.8683 25.2997 55.0302C24.8609 54.6922 24.4226 54.2805 23.9759 53.7885C23.4968 53.2592 23.0418 52.6639 22.5789 51.9661C22.1729 51.3636 21.791 50.7093 21.3933 49.9675C20.7029 48.6668 20.0935 47.2778 19.5252 45.7127C19.0137 44.2948 18.5587 42.7736 18.1934 41.201C17.8277 39.6655 17.5516 38.0929 17.3648 36.5353C17.3648 36.5131 17.3569 36.4909 17.3569 36.4692C17.3731 36.5206 17.3893 36.5792 17.4055 36.6307Z" fill="#7ED957"/>
<path d="M19.9565 34.2716C19.9479 34.2645 19.9398 34.2497 19.9312 34.2426C19.9398 34.2571 19.9479 34.2645 19.9565 34.2716Z" fill="#7ED957"/>
</g>
<defs>
<clipPath id="clip0_725_4">
<rect width="42" height="38" fill="white" transform="translate(7 21)"/>
</clipPath>
</defs>
</svg>
